<svg width="190" height="242" viewBox="0 0 190 242" fill="none" xmlns="http://www.w3.org/2000/svg">
<rect width="190" height="242" rx="14" fill="url(#paint0_linear_35651_6048)"/>
<g opacity="0.2">
<path d="M113.475 166.151C114.158 160.993 110.532 156.738 106.001 154.181C101.47 151.623 96.2132 150.768 91.2088 149.346C86.4888 148.005 81.7944 146.048 78.2984 142.605C74.8024 139.162 72.7051 133.986 73.962 129.243C74.2776 128.052 74.8414 126.855 75.8641 126.168C76.8868 125.481 78.4481 125.499 79.211 126.466C80.8356 128.527 77.6699 132.217 79.6523 133.936C80.1073 134.33 80.7332 134.476 81.2043 134.851C82.4577 135.851 82.052 137.794 82.2289 139.388C82.579 142.539 85.5342 144.728 88.4366 146.005C92.324 147.715 96.5355 148.519 100.66 149.533C104.784 150.546 108.942 151.823 112.378 154.32C115.814 156.816 118.795 160.724 118.771 164.971C118.764 166.158 118.613 167.617 117.869 168.541C117.124 169.464 116.175 169.656 115.101 169.151C114.027 168.646 113.276 167.864 113.475 166.151Z" fill="#FF9B21"/>
<g opacity="0.8">
<path d="M113.475 166.15C114.158 160.993 110.532 156.738 106.001 154.18C101.47 151.623 96.2137 150.768 91.2093 149.346C86.4893 148.004 81.7949 146.048 78.2989 142.605C74.8029 139.162 72.7056 133.986 73.9625 129.243C74.2781 128.052 74.8419 126.855 75.8646 126.168C76.8873 125.481 78.4486 125.499 79.2115 126.466C80.8361 128.527 77.6704 132.217 79.6528 133.936C80.1078 134.33 80.7337 134.476 81.2048 134.851C82.4582 135.851 82.0525 137.794 82.2294 139.388C82.5795 142.539 85.5347 144.728 88.4371 146.004C92.3245 147.715 96.536 148.519 100.66 149.532C104.784 150.546 108.943 151.823 112.379 154.32C115.814 156.816 118.795 160.724 118.771 164.971C118.765 166.157 118.614 167.617 117.869 168.54C117.124 169.464 116.176 169.656 115.102 169.151C114.027 168.645 113.276 167.864 113.475 166.15Z" fill="white"/>
</g>
<path d="M91.5523 125.151C91.3891 123.241 92.8122 121.577 94.4307 120.686C96.0493 119.794 97.9031 119.431 99.5719 118.64C103.715 116.676 106.349 112.054 106.544 107.312C106.739 102.571 104.684 97.8324 101.468 94.3499C100.161 92.9348 98.5539 91.4523 98.5347 89.5217C98.5146 87.5073 100.469 85.9198 102.42 85.9454C104.372 85.971 106.17 87.2772 107.339 88.9207C108.507 90.5643 109.153 92.5227 109.782 94.4455C109.334 93.6417 110.255 92.6459 111.142 92.7316C112.029 92.8174 112.729 93.5572 113.276 94.2942C115.628 97.4596 116.791 101.526 116.467 105.444C116.142 109.362 114.333 113.09 111.507 115.666C108.35 118.544 104.173 119.894 100.124 121.172C97.3059 122.061 94.4883 122.95 91.6704 123.839" fill="#FF9B21"/>
<g opacity="0.8">
<path d="M91.5519 125.151C91.3887 123.241 92.8117 121.577 94.4302 120.685C96.0488 119.794 97.9026 119.431 99.5714 118.64C103.714 116.676 106.349 112.054 106.544 107.312C106.738 102.571 104.683 97.8323 101.467 94.3497C100.161 92.9347 98.5535 91.4521 98.5343 89.5216C98.5141 87.5072 100.468 85.9197 102.42 85.9453C104.371 85.9709 106.17 87.2771 107.338 88.9206C108.506 90.5641 109.153 92.5225 109.782 94.4454C109.334 93.6416 110.254 92.6457 111.141 92.7315C112.028 92.8173 112.728 93.5571 113.276 94.2941C115.627 97.4595 116.791 101.526 116.466 105.444C116.142 109.362 114.333 113.09 111.507 115.666C108.35 118.544 104.172 119.894 100.123 121.171C97.3055 122.06 94.4879 122.95 91.6699 123.839" fill="white"/>
</g>
<path d="M89.2015 85.0076C88.3618 85.3609 87.901 86.4246 88.2175 87.279C88.5343 88.1334 89.5769 88.6396 90.4441 88.3602C91.3113 88.0809 91.8623 87.061 91.621 86.1826C91.3794 85.3039 90.3845 84.7094 89.4962 84.9126" fill="#FF9B21"/>
<g opacity="0.8">
<path d="M89.2015 85.0079C88.3618 85.3612 87.901 86.4249 88.2175 87.2793C88.5343 88.1337 89.5769 88.6399 90.4441 88.3606C91.3113 88.0812 91.8623 87.0614 91.621 86.183C91.3794 85.3042 90.3845 84.7097 89.4962 84.9129" fill="white"/>
</g>
<path d="M99.6261 208.309C98.59 206.161 99.4933 203.483 101.144 201.762C102.794 200.04 105.049 199.058 107.232 198.096C112.049 195.974 117.15 193.445 119.599 188.786C120.425 187.215 120.896 185.485 121.361 183.772C122.26 180.456 123.103 176.69 121.295 173.768C120.775 172.927 119.993 172.18 119.019 172.007C117.912 171.81 116.772 172.421 116.089 173.315C115.406 174.209 115.113 175.342 114.972 176.459C114.704 178.582 114.926 180.743 114.703 182.872C114.48 185.001 113.701 187.227 111.945 188.451C109.812 189.938 106.769 189.604 104.697 191.175C103.025 192.444 102.388 194.644 101.08 196.285C99.9807 197.665 98.4425 198.608 97.0332 199.669C95.6239 200.731 94.261 202.026 93.782 203.724C93.2847 205.487 93.9065 207.516 95.3071 208.698C96.7077 209.879 98.8117 210.151 100.467 209.364" fill="#FF9B21"/>
<g opacity="0.8">
<path d="M99.6266 208.309C98.5905 206.16 99.4938 203.483 101.144 201.761C102.795 200.04 105.05 199.057 107.232 198.096C112.05 195.974 117.15 193.445 119.6 188.786C120.426 187.215 120.897 185.485 121.361 183.772C122.261 180.455 123.103 176.689 121.295 173.767C120.775 172.927 119.993 172.179 119.02 172.007C117.912 171.81 116.773 172.42 116.09 173.315C115.407 174.209 115.114 175.342 114.973 176.458C114.704 178.582 114.927 180.743 114.703 182.871C114.48 185 113.701 187.227 111.945 188.451C109.813 189.938 106.769 189.604 104.698 191.175C103.025 192.444 102.389 194.643 101.081 196.285C99.9812 197.665 98.4429 198.608 97.0337 199.669C95.6244 200.73 94.2615 202.025 93.7825 203.723C93.2852 205.487 93.9069 207.516 95.3076 208.697C96.7082 209.879 98.8122 210.151 100.467 209.364" fill="white"/>
</g>
<path d="M67.585 99.8339C65.8884 98.5754 64.8532 96.4717 64.8906 94.3597C64.9284 92.2477 66.0381 90.1821 67.7786 88.985C68.7626 88.3082 69.9293 87.8941 70.8042 87.081C71.5821 86.3581 72.0881 85.3552 72.9585 84.7472C74.0401 83.992 75.609 84.0253 76.6577 84.8256C77.706 85.6262 78.1518 87.1312 77.7079 88.3734C77.3066 89.4966 76.2986 90.3171 75.8772 91.4326C75.4237 92.6336 75.7159 93.9789 75.5473 95.2515C75.3402 96.8154 74.3905 98.2643 73.0388 99.0778C71.6871 99.8912 69.962 100.052 68.4833 99.5027" fill="#FF9B21"/>
<g opacity="0.8">
<path d="M67.5845 99.8337C65.8879 98.5752 64.8527 96.4715 64.8901 94.3595C64.9279 92.2475 66.0377 90.1819 67.7781 88.9848C68.7621 88.308 69.9289 87.8939 70.8037 87.0808C71.5817 86.3579 72.0876 85.355 72.958 84.747C74.0396 83.9918 75.6085 84.0251 76.6572 84.8254C77.7055 85.6261 78.1513 87.131 77.7074 88.3733C77.3061 89.4965 76.2981 90.3169 75.8767 91.4325C75.4233 92.6334 75.7154 93.9787 75.5468 95.2513C75.3397 96.8152 74.39 98.2641 73.0383 99.0776C71.6866 99.891 69.9615 100.052 68.4828 99.5025" fill="white"/>
</g>
<path d="M69.9077 102.813H69.4392C68.4824 102.813 67.707 102.037 67.707 101.081V92.9736H71.6398V101.081C71.6398 102.037 70.8645 102.813 69.9077 102.813Z" fill="#FF9B21"/>
<path d="M67.707 92.9741L69.6734 89.3674L71.6398 92.9741H67.707Z" fill="#FFBE9D"/>
<path d="M68.8945 90.7959C68.8945 90.7959 69.4917 91.6938 70.4523 90.7959L69.6734 89.3674L68.8945 90.7959Z" fill="#FF9B21"/>
<path d="M71.6949 100.686C71.6949 100.729 70.7998 100.765 69.6958 100.765C68.5915 100.765 67.6968 100.729 67.6968 100.686C67.6968 100.642 68.5918 100.606 69.6958 100.606C70.7998 100.606 71.6949 100.642 71.6949 100.686Z" fill="#263238"/>
<path d="M71.6551 100.083C71.6551 100.127 70.7779 100.162 69.6963 100.162C68.6141 100.162 67.7373 100.127 67.7373 100.083C67.7373 100.039 68.6141 100.004 69.6963 100.004C70.7783 100.004 71.6551 100.039 71.6551 100.083Z" fill="#263238"/>
<path d="M68.8611 93.0312C68.9049 93.0312 68.9405 94.6011 68.9405 96.5368C68.9405 98.4734 68.9049 100.043 68.8611 100.043C68.8173 100.043 68.7817 98.4734 68.7817 96.5368C68.7817 94.6008 68.8173 93.0312 68.8611 93.0312Z" fill="#FAFAFA"/>
<path d="M70.4539 93.0312C70.4977 93.0312 70.5332 94.6011 70.5332 96.5368C70.5332 98.4734 70.4977 100.043 70.4539 100.043C70.41 100.043 70.3745 98.4734 70.3745 96.5368C70.3745 94.6008 70.41 93.0312 70.4539 93.0312Z" fill="#FAFAFA"/>
</g>
<path d="M101.874 203.79L119.741 204.554L120.172 205.595L108.462 224.603L87.3223 223.987L101.874 203.79Z" fill="#263238"/>
<path d="M86.522 222.133L107.789 223.348L118.897 206.11L111.097 206.744L91.3553 213.696L86.522 222.133Z" fill="#E0E0E0"/>
<path d="M83.5334 220.854L103.063 221.163C102.251 218.664 104.165 215.145 106.79 213.962C108.53 213.177 111.805 212.161 113.494 211.294C116.705 209.647 119.606 206.528 119.352 203.852L111.331 203.597L101.094 203.201C100.238 205.741 98.4073 207.405 95.6236 208.405C93.1324 209.301 90.2972 209.299 87.8674 210.316C83.9564 211.954 82.077 217.261 83.5334 220.854Z" fill="#EBEBEB"/>
<path d="M83.5341 220.854C83.5341 220.854 83.5155 220.812 83.4851 220.728C83.4534 220.639 83.4093 220.514 83.3514 220.351C83.2832 220.188 83.2435 219.972 83.185 219.719C83.1149 219.468 83.0915 219.167 83.0502 218.83C83.0006 218.154 83.0077 217.309 83.2051 216.347C83.4038 215.389 83.7814 214.309 84.4576 213.248C84.633 212.987 84.8016 212.712 85.0198 212.462C85.1258 212.336 85.225 212.201 85.3395 212.076C85.4586 211.956 85.5786 211.834 85.7002 211.711C85.8173 211.582 85.952 211.47 86.0906 211.36C86.2288 211.25 86.3626 211.13 86.5088 211.024C86.815 210.831 87.1117 210.607 87.4595 210.457C88.8128 209.774 90.4294 209.487 92.113 209.182C92.9571 209.028 93.8262 208.868 94.6989 208.628C95.5677 208.381 96.4429 208.052 97.2733 207.591C97.6906 207.366 98.0938 207.102 98.4749 206.803C98.8589 206.508 99.2189 206.172 99.5411 205.796C100.198 205.054 100.692 204.152 101.025 203.177L101.043 203.125L101.098 203.127C103.816 203.231 106.67 203.34 109.628 203.452C112.585 203.569 115.648 203.649 118.783 203.754C118.976 203.76 119.168 203.766 119.355 203.772L119.426 203.775L119.432 203.844C119.486 204.463 119.373 205.078 119.174 205.65C119.083 205.94 118.943 206.209 118.816 206.482C118.665 206.742 118.524 207.007 118.349 207.25C117.683 208.244 116.83 209.076 115.93 209.807C115.021 210.533 114.036 211.136 113.01 211.611C111.98 212.074 110.937 212.452 109.915 212.83C108.894 213.208 107.884 213.566 106.924 213.983C106.454 214.202 106.002 214.452 105.611 214.78C105.403 214.929 105.23 215.116 105.04 215.282C104.873 215.471 104.687 215.642 104.539 215.843C103.908 216.617 103.434 217.494 103.173 218.41C102.897 219.32 102.866 220.283 103.125 221.142L103.151 221.229L103.062 221.228C97.1469 221.123 92.2666 221.036 88.8592 220.976C87.1613 220.941 85.8314 220.914 84.9206 220.896C84.471 220.884 84.1258 220.876 83.8874 220.87C83.6541 220.863 83.5341 220.854 83.5341 220.854C83.5341 220.854 83.6544 220.849 83.888 220.85C84.1264 220.851 84.4717 220.853 84.9213 220.856C85.8323 220.867 87.1622 220.882 88.8605 220.901C92.2678 220.948 97.1485 221.015 103.064 221.097L103.002 221.182C102.73 220.292 102.763 219.301 103.043 218.372C103.308 217.436 103.788 216.543 104.429 215.754C104.58 215.548 104.769 215.373 104.94 215.181C105.132 215.011 105.309 214.82 105.521 214.668C105.92 214.332 106.386 214.073 106.865 213.849C107.832 213.427 108.842 213.068 109.863 212.689C110.883 212.31 111.925 211.931 112.946 211.471C113.959 211.001 114.934 210.404 115.832 209.685C116.722 208.962 117.564 208.138 118.218 207.162C118.39 206.924 118.528 206.663 118.676 206.409C118.8 206.143 118.936 205.88 119.024 205.598C119.217 205.043 119.325 204.451 119.274 203.86L119.35 203.932C119.163 203.926 118.971 203.92 118.778 203.914C115.643 203.809 112.58 203.727 109.622 203.609C106.664 203.493 103.811 203.381 101.092 203.275L101.164 203.225C100.824 204.215 100.319 205.135 99.6483 205.89C99.319 206.272 98.9517 206.614 98.5607 206.914C98.1722 207.217 97.7626 207.484 97.3389 207.711C96.496 208.176 95.6118 208.507 94.7334 208.753C93.8528 208.993 92.9795 209.152 92.1347 209.303C90.4502 209.603 88.8426 209.886 87.5075 210.553C87.1648 210.7 86.872 210.92 86.569 211.108C86.4243 211.212 86.2922 211.33 86.1552 211.438C86.0179 211.546 85.8845 211.656 85.7686 211.782C85.648 211.904 85.5286 212.023 85.4106 212.142C85.2966 212.264 85.1981 212.397 85.0928 212.522C84.8758 212.767 84.7078 213.039 84.5328 213.296C83.8579 214.343 83.4768 215.412 83.2726 216.362C83.0701 217.316 83.0557 218.154 83.0973 218.827C83.1347 219.162 83.1539 219.462 83.2198 219.712C83.2742 219.965 83.3098 220.18 83.3741 220.345C83.4269 220.509 83.4672 220.635 83.4963 220.724C83.5232 220.809 83.5341 220.854 83.5341 220.854Z" fill="#263238"/>
<path d="M106.582 203.518C106.568 203.514 106.607 203.392 106.626 203.169C106.643 202.947 106.628 202.614 106.472 202.246C106.322 201.883 106.023 201.481 105.549 201.257C105.083 201.033 104.467 200.986 103.904 201.198C103.336 201.406 102.928 201.869 102.715 202.343C102.493 202.82 102.463 203.312 102.527 203.703C102.591 204.097 102.74 204.394 102.861 204.582C102.982 204.772 103.072 204.862 103.062 204.871C103.057 204.877 102.951 204.802 102.81 204.617C102.67 204.434 102.498 204.134 102.416 203.723C102.335 203.316 102.354 202.792 102.581 202.283C102.799 201.777 103.234 201.276 103.848 201.05C104.454 200.821 105.114 200.876 105.614 201.126C106.123 201.376 106.432 201.817 106.577 202.205C106.728 202.598 106.724 202.949 106.688 203.176C106.668 203.291 106.645 203.378 106.622 203.434C106.6 203.491 106.587 203.52 106.582 203.518Z" fill="#263238"/>
<path d="M109.641 203.518C109.627 203.514 109.667 203.392 109.685 203.169C109.702 202.947 109.688 202.614 109.532 202.246C109.382 201.883 109.082 201.481 108.609 201.257C108.143 201.033 107.527 200.986 106.963 201.198C106.396 201.406 105.987 201.869 105.774 202.343C105.553 202.82 105.523 203.312 105.586 203.703C105.65 204.097 105.8 204.394 105.92 204.582C106.041 204.772 106.131 204.862 106.121 204.871C106.116 204.877 106.01 204.802 105.87 204.617C105.73 204.434 105.558 204.134 105.476 203.723C105.395 203.316 105.414 202.792 105.641 202.283C105.858 201.777 106.293 201.276 106.907 201.05C107.514 200.821 108.174 200.876 108.673 201.126C109.183 201.376 109.492 201.817 109.637 202.205C109.787 202.598 109.784 202.949 109.747 203.176C109.728 203.291 109.705 203.378 109.682 203.434C109.66 203.491 109.646 203.52 109.641 203.518Z" fill="#263238"/>
<path d="M111.965 203.677C111.951 203.673 111.984 203.55 111.99 203.326C111.994 203.103 111.961 202.772 111.784 202.413C111.613 202.06 111.292 201.674 110.807 201.478C110.328 201.28 109.711 201.268 109.16 201.512C108.606 201.752 108.224 202.237 108.038 202.722C107.844 203.211 107.842 203.704 107.927 204.091C108.014 204.481 108.179 204.768 108.31 204.949C108.442 205.132 108.537 205.217 108.528 205.227C108.523 205.233 108.413 205.164 108.262 204.988C108.112 204.813 107.923 204.523 107.818 204.117C107.714 203.715 107.703 203.191 107.901 202.67C108.09 202.153 108.496 201.627 109.096 201.367C109.688 201.105 110.35 201.122 110.863 201.343C111.386 201.564 111.72 201.987 111.886 202.366C112.059 202.75 112.075 203.1 112.051 203.329C112.039 203.445 112.021 203.533 112.001 203.591C111.983 203.649 111.971 203.678 111.965 203.677Z" fill="#263238"/>
<path d="M114.458 203.818C114.444 203.816 114.47 203.691 114.464 203.466C114.456 203.244 114.406 202.915 114.21 202.566C114.021 202.222 113.679 201.854 113.184 201.684C112.696 201.512 112.079 201.532 111.542 201.805C111.001 202.074 110.645 202.578 110.486 203.073C110.318 203.572 110.342 204.064 110.447 204.445C110.554 204.831 110.735 205.109 110.875 205.282C111.016 205.458 111.116 205.538 111.107 205.548C111.102 205.554 110.989 205.491 110.829 205.323C110.67 205.157 110.466 204.877 110.34 204.477C110.214 204.081 110.176 203.559 110.346 203.028C110.507 202.501 110.885 201.955 111.47 201.664C112.048 201.37 112.71 201.353 113.234 201.546C113.767 201.739 114.123 202.144 114.309 202.514C114.502 202.888 114.537 203.237 114.525 203.467C114.519 203.583 114.505 203.672 114.489 203.73C114.474 203.79 114.464 203.82 114.458 203.818Z" fill="#263238"/>
<path d="M116.957 203.761C116.942 203.758 116.965 203.633 116.952 203.409C116.939 203.187 116.879 202.859 116.674 202.516C116.475 202.177 116.123 201.819 115.624 201.663C115.131 201.505 114.514 201.543 113.986 201.83C113.452 202.115 113.111 202.628 112.965 203.127C112.811 203.63 112.849 204.122 112.966 204.5C113.083 204.882 113.272 205.155 113.417 205.325C113.563 205.497 113.665 205.573 113.656 205.584C113.652 205.591 113.536 205.531 113.372 205.367C113.208 205.205 112.996 204.931 112.859 204.535C112.722 204.143 112.669 203.622 112.825 203.086C112.971 202.555 113.333 201.998 113.91 201.691C114.479 201.381 115.14 201.345 115.67 201.524C116.208 201.701 116.576 202.096 116.772 202.46C116.975 202.83 117.02 203.177 117.015 203.407C117.012 203.523 117.001 203.612 116.986 203.672C116.972 203.731 116.962 203.762 116.957 203.761Z" fill="#263238"/>
<path d="M119.06 204.04C119.045 204.037 119.073 203.913 119.07 203.689C119.065 203.466 119.018 203.136 118.827 202.786C118.641 202.439 118.304 202.067 117.811 201.891C117.325 201.713 116.708 201.727 116.168 201.993C115.624 202.256 115.262 202.755 115.097 203.248C114.922 203.745 114.941 204.238 115.042 204.62C115.145 205.007 115.322 205.287 115.46 205.463C115.6 205.64 115.698 205.72 115.689 205.731C115.684 205.737 115.571 205.673 115.413 205.503C115.257 205.334 115.056 205.052 114.934 204.651C114.814 204.253 114.781 203.731 114.958 203.202C115.125 202.677 115.509 202.135 116.098 201.851C116.679 201.564 117.341 201.554 117.863 201.754C118.394 201.953 118.745 202.362 118.927 202.734C119.115 203.111 119.146 203.459 119.132 203.689C119.124 203.805 119.109 203.894 119.092 203.953C119.076 204.011 119.065 204.041 119.06 204.04Z" fill="#263238"/>
<path d="M128.265 138.489C127.424 138.465 126.532 138.495 125.619 138.609C120.105 139.292 115.996 144.028 116.007 149.584C116.011 151.202 116.183 153.013 116.692 154.816C118.23 160.273 118.705 165.086 118.527 167.428L123.678 170.197C123.678 170.197 126.063 166.771 128.366 165.293C130.669 163.815 138.338 159.865 141.374 155.803C143.331 153.185 143.707 147.811 139.042 143.112C136.191 140.24 132.309 138.603 128.265 138.489Z" fill="#77A8AF"/>
<path d="M116.088 173.388L120.741 175.903L117.712 179.75L114.61 178.34L116.088 173.388Z" fill="#455A64"/>
<path d="M116.313 173.543C116.271 173.528 116.733 172.147 117.344 170.459C117.955 168.77 118.484 167.413 118.525 167.428C118.566 167.443 118.104 168.824 117.493 170.513C116.883 172.201 116.354 173.558 116.313 173.543Z" fill="#263238"/>
<path d="M120.449 175.714C120.411 175.691 121.14 174.387 122.077 172.8C123.014 171.213 123.805 169.944 123.843 169.967C123.88 169.989 123.151 171.294 122.214 172.881C121.277 174.468 120.486 175.736 120.449 175.714Z" fill="#263238"/>
<g opacity="0.4">
<path d="M129.814 138.636C129.605 138.647 127.045 141.644 125.912 143.673C122.102 150.497 121.93 157.139 120.873 164.883C120.722 165.99 120.172 168.375 120.182 168.32C120.746 168.761 122.641 169.641 122.641 169.641C122.641 169.641 124.428 167.484 125.138 166.4C127.982 162.056 131.069 158.669 133.503 154.083C135.937 149.497 138.28 145.431 136.027 140.753C136.027 140.753 132.126 138.506 129.814 138.636Z" fill="black"/>
</g>
<path d="M141.393 156.49C141.39 156.491 141.367 156.441 141.327 156.343C141.284 156.245 141.235 156.095 141.149 155.91C140.981 155.538 140.706 155.002 140.25 154.397C139.792 153.798 139.153 153.121 138.273 152.553C137.408 151.972 136.294 151.511 135.031 151.353L135 151.349L134.982 151.324C134.39 150.526 133.711 149.702 132.903 148.938C132.096 148.175 131.151 147.474 130.065 146.983C128.98 146.5 127.812 146.285 126.71 146.344C125.608 146.4 124.574 146.75 123.775 147.322L123.728 147.356L123.685 147.318C122.729 146.477 121.583 146.042 120.55 145.925C119.511 145.805 118.588 145.996 117.885 146.264C117.176 146.534 116.676 146.877 116.353 147.126C116.193 147.252 116.073 147.354 115.994 147.426C115.915 147.497 115.873 147.532 115.87 147.53C115.867 147.527 115.905 147.486 115.979 147.409C116.052 147.332 116.168 147.223 116.326 147.091C116.642 146.829 117.139 146.47 117.854 146.185C118.563 145.901 119.501 145.694 120.564 145.807C121.619 145.916 122.794 146.352 123.78 147.21L123.691 147.206C124.512 146.612 125.574 146.248 126.702 146.189C127.83 146.126 129.022 146.344 130.13 146.838C131.238 147.338 132.195 148.052 133.009 148.825C133.825 149.6 134.506 150.433 135.097 151.239L135.048 151.21C136.336 151.378 137.466 151.855 138.339 152.454C139.226 153.039 139.865 153.733 140.318 154.345C140.77 154.964 141.035 155.511 141.191 155.891C141.271 156.081 141.313 156.234 141.349 156.334C141.382 156.436 141.397 156.489 141.393 156.49Z" fill="#263238"/>
<path d="M131.816 163.29C131.785 163.3 131.791 162.824 131.372 162.17C131.16 161.853 130.844 161.492 130.383 161.221C129.932 160.941 129.329 160.754 128.678 160.817L128.614 160.823L128.604 160.759C128.501 160.097 128.226 159.393 127.759 158.769C127.293 158.148 126.642 157.594 125.847 157.286C125.195 157.026 124.501 156.935 123.849 156.979C123.196 157.026 122.587 157.211 122.07 157.482L122.021 157.508L121.983 157.467C121.468 156.916 120.804 156.606 120.194 156.498C119.583 156.375 119.025 156.437 118.591 156.549C117.71 156.789 117.335 157.214 117.318 157.181C117.315 157.178 117.338 157.154 117.386 157.111C117.435 157.07 117.502 157.002 117.604 156.93C117.804 156.785 118.123 156.597 118.568 156.466C119.01 156.339 119.583 156.264 120.216 156.381C120.847 156.483 121.543 156.795 122.089 157.37L122.002 157.356C122.535 157.071 123.164 156.876 123.839 156.825C124.512 156.776 125.23 156.868 125.907 157.138C126.731 157.459 127.405 158.034 127.882 158.678C128.362 159.325 128.639 160.054 128.738 160.738L128.664 160.681C129.352 160.621 129.979 160.828 130.441 161.125C130.914 161.415 131.231 161.794 131.439 162.127C131.645 162.465 131.736 162.765 131.78 162.97C131.802 163.072 131.806 163.153 131.813 163.207C131.819 163.261 131.82 163.289 131.816 163.29Z" fill="#263238"/>
<path d="M119.842 177.115C119.83 177.124 119.792 177.051 119.671 177.002C119.551 176.951 119.358 176.945 119.127 177.018C119.009 177.05 118.875 177.093 118.716 177.094C118.556 177.096 118.378 177.019 118.256 176.891C118.009 176.634 117.915 176.262 117.682 176.005C117.566 175.879 117.415 175.815 117.253 175.824C117.092 175.831 116.929 175.884 116.768 175.921C116.607 175.959 116.437 175.984 116.28 175.947C116.125 175.914 115.997 175.837 115.899 175.752C115.702 175.579 115.615 175.375 115.593 175.235C115.569 175.093 115.591 175.014 115.599 175.015C115.613 175.015 115.613 175.093 115.653 175.22C115.691 175.345 115.786 175.522 115.97 175.665C116.062 175.735 116.176 175.796 116.306 175.818C116.434 175.843 116.579 175.82 116.733 175.779C116.887 175.74 117.052 175.679 117.247 175.668C117.442 175.651 117.66 175.741 117.797 175.895C118.068 176.203 118.153 176.569 118.361 176.789C118.462 176.897 118.589 176.957 118.719 176.962C118.85 176.967 118.98 176.934 119.101 176.909C119.344 176.846 119.572 176.869 119.699 176.946C119.829 177.024 119.849 177.115 119.842 177.115Z" fill="#263238"/>
<path d="M120.376 176.367C120.355 176.406 119.338 175.904 118.106 175.246C116.872 174.588 115.889 174.024 115.91 173.985C115.931 173.946 116.947 174.448 118.18 175.106C119.413 175.764 120.396 176.329 120.376 176.367Z" fill="#263238"/>
<path d="M119.452 177.541C119.454 177.553 119.387 177.573 119.274 177.625C119.218 177.65 119.153 177.689 119.064 177.725C118.975 177.761 118.861 177.775 118.743 177.766C118.511 177.75 118.225 177.677 117.977 177.471C117.853 177.37 117.749 177.223 117.684 177.069C117.616 176.917 117.562 176.761 117.459 176.65C117.246 176.422 116.902 176.398 116.616 176.408C116.322 176.419 116.033 176.428 115.807 176.331C115.584 176.238 115.448 176.079 115.398 175.956C115.346 175.83 115.364 175.753 115.372 175.754C115.386 175.752 115.39 175.825 115.453 175.927C115.514 176.029 115.645 176.156 115.847 176.226C116.048 176.298 116.311 176.282 116.611 176.262C116.902 176.246 117.297 176.251 117.576 176.542C117.709 176.689 117.763 176.862 117.827 177.005C117.887 177.151 117.967 177.267 118.073 177.36C118.282 177.545 118.541 177.626 118.754 177.654C118.969 177.694 119.125 177.604 119.253 177.567C119.377 177.531 119.45 177.532 119.452 177.541Z" fill="#263238"/>
<path d="M84.3192 147.655L92.3659 146.461L88.5186 141.011L86.4555 141.133C85.0671 141.215 83.8431 142.073 83.2927 143.35C83.0002 144.029 82.9189 144.779 83.0591 145.505L84.3192 147.655Z" fill="#FF9B21"/>
<path opacity="0.4" d="M84.3192 147.655L92.3659 146.461L88.5186 141.011L86.4555 141.133C85.0671 141.215 83.8431 142.073 83.2927 143.35C83.0002 144.029 82.9189 144.779 83.0591 145.505L84.3192 147.655Z" fill="black"/>
<path d="M118.885 156.571C118.968 156.801 119.059 157.074 119.15 157.4C119.229 157.68 119.256 157.972 119.237 158.262C119.213 158.614 119.162 159.081 119.055 159.327C118.923 159.632 119.23 159.94 119.491 159.787C119.752 159.634 120.137 158.802 120.113 157.731C120.09 156.66 121.182 157.944 121.588 158.405C121.995 158.865 123.32 160.231 123.56 160.219C123.913 160.2 123.958 159.818 123.541 159.368C123.12 158.912 121.97 157.478 122.224 157.275C122.474 157.075 124.511 159.448 124.511 159.448C124.511 159.448 124.865 160.026 125.166 159.801C125.708 159.396 123.357 157.032 123.127 156.813C122.968 156.661 123.236 156.43 123.398 156.603C123.565 156.781 125.375 159.018 125.932 158.61C126.359 158.298 124.015 156.648 123.898 155.976C123.78 155.303 125.547 157.407 125.943 157.092C126.091 156.974 126.184 156.866 124.995 155.805C124.417 155.289 122.222 153.753 122.222 153.753L115.618 134.843L110.517 137.764L118.885 156.571Z" fill="#FFBE9D"/>
<path d="M79.5676 120.808L72.1872 112L72.1865 112C72.0908 111.697 71.976 111.402 71.8256 111.122C71.4566 110.435 70.8464 109.836 70.0844 109.669C69.6163 109.567 69.0806 109.616 68.7132 109.309C68.5491 109.171 68.4397 108.975 68.2675 108.847C68.0957 108.72 67.8089 108.695 67.6988 108.879C67.6204 109.01 67.6704 109.178 67.7296 109.318C68.0035 109.968 68.4512 110.543 69.0108 110.972C68.3187 111.182 67.3305 111.5 67.3305 111.5C67.3305 111.5 65.7702 109.807 64.9712 109.813C64.1721 109.818 65.6169 111.324 65.6169 111.324C65.6169 111.324 64.3373 110.142 63.9405 110.475C63.5437 110.808 64.5606 111.686 64.5606 111.686C64.2374 111.513 63.8838 111.335 63.5225 111.395C63.1613 111.455 62.8502 111.882 63.0448 112.192C63.1193 112.311 63.247 112.384 63.3699 112.453C64.0246 112.817 64.6793 113.182 65.3344 113.548C65.663 113.731 66.0083 113.919 66.3846 113.93C67.3811 113.961 68.1388 113.344 69.1353 113.371C69.1353 113.371 74.7008 125.086 75.2636 125.69C75.8265 126.294 88.0531 127.117 88.0531 127.117L95.1296 121.02L79.5676 120.808Z" fill="#FFBE9D"/>
<path d="M101.735 184.624L109.272 187.906L105.236 197.304C104.362 196.863 104.648 191.228 104.648 191.228L99.7324 189.323L101.735 184.624Z" fill="#FF9B21"/>
<g opacity="0.6">
<path d="M105.487 188.146C105.615 187.986 105.874 187.948 106.039 188.069C106.205 188.19 106.246 188.453 106.121 188.615C105.996 188.778 105.687 188.833 105.536 188.694C105.385 188.555 105.354 188.244 105.514 188.116" fill="white"/>
</g>
<path opacity="0.6" d="M109.271 187.906L108.498 187.605L104.917 196.728C104.917 196.728 104.92 197.225 105.235 197.304L109.271 187.906Z" fill="white"/>
<path d="M104.534 191.36C104.58 191.378 104.699 191.157 104.944 190.995C105.185 190.826 105.433 190.795 105.433 190.745C105.442 190.699 105.139 190.649 104.846 190.851C104.552 191.05 104.487 191.351 104.534 191.36Z" fill="#263238"/>
<path d="M104.518 192.521C104.558 192.55 104.721 192.385 104.982 192.313C105.241 192.232 105.468 192.283 105.485 192.237C105.511 192.197 105.256 192.05 104.933 192.146C104.61 192.239 104.474 192.501 104.518 192.521Z" fill="#263238"/>
<path d="M105.458 193.587C105.486 193.549 105.284 193.387 104.982 193.397C104.68 193.404 104.488 193.578 104.518 193.614C104.544 193.656 104.739 193.575 104.987 193.57C105.235 193.561 105.434 193.631 105.458 193.587Z" fill="#263238"/>
<path d="M103.463 190.801C103.513 190.799 103.54 190.562 103.669 190.31C103.793 190.055 103.966 189.891 103.937 189.85C103.916 189.809 103.661 189.933 103.513 190.232C103.363 190.53 103.417 190.808 103.463 190.801Z" fill="#263238"/>
<path d="M102.443 190.098C102.462 190.107 102.569 189.937 102.643 189.626C102.68 189.471 102.706 189.281 102.703 189.069C102.702 188.963 102.693 188.851 102.676 188.737C102.666 188.682 102.66 188.618 102.626 188.547C102.6 188.476 102.491 188.395 102.391 188.422C102.298 188.438 102.23 188.51 102.2 188.577C102.168 188.646 102.157 188.708 102.148 188.764C102.129 188.88 102.121 188.993 102.123 189.1C102.127 189.315 102.168 189.505 102.221 189.656C102.329 189.961 102.469 190.109 102.485 190.097C102.509 190.083 102.41 189.915 102.339 189.622C102.304 189.475 102.279 189.297 102.283 189.1C102.286 189.002 102.296 188.899 102.316 188.794C102.332 188.684 102.368 188.598 102.423 188.592C102.444 188.59 102.451 188.592 102.472 188.625C102.489 188.658 102.498 188.71 102.507 188.764C102.526 188.871 102.537 188.974 102.543 189.074C102.553 189.273 102.542 189.454 102.521 189.604C102.482 189.905 102.418 190.088 102.443 190.098Z" fill="#263238"/>
<path d="M102.534 190.067C102.548 190.053 102.423 189.891 102.133 189.747C101.989 189.676 101.804 189.615 101.59 189.59C101.483 189.579 101.37 189.576 101.253 189.587C101.136 189.602 100.983 189.616 100.886 189.785C100.842 189.877 100.882 189.985 100.933 190.038C100.983 190.097 101.035 190.126 101.084 190.161C101.187 190.225 101.295 190.269 101.401 190.297C101.614 190.353 101.815 190.343 101.974 190.305C102.296 190.226 102.433 190.058 102.419 190.047C102.403 190.022 102.246 190.144 101.951 190.184C101.806 190.203 101.627 190.2 101.445 190.143C101.354 190.115 101.262 190.074 101.177 190.017C101.083 189.96 101.019 189.888 101.045 189.855C101.064 189.808 101.174 189.761 101.27 189.756C101.375 189.744 101.478 189.743 101.575 189.749C101.77 189.763 101.944 189.807 102.084 189.859C102.366 189.966 102.517 190.089 102.534 190.067Z" fill="#263238"/>
<path d="M95.9302 197.534L99.0473 204.065L100.024 209.942C100.094 210.365 100.508 210.64 100.926 210.542C101.16 210.486 101.352 210.323 101.442 210.1C102.015 208.681 104.097 203.452 103.842 202.986C103.546 202.447 101.01 195.879 101.01 195.879L95.9302 197.534Z" fill="#FF9B21"/>
<path opacity="0.6" d="M100.925 210.542L103.641 202.541L103.767 202.821C103.875 203.063 103.896 203.335 103.822 203.59C103.624 204.271 103.037 206.139 101.461 210.092C101.369 210.321 101.168 210.491 100.925 210.542Z" fill="white"/>
<g opacity="0.6">
<path d="M101.331 201.02C101.217 201.209 101.276 201.483 101.46 201.605C101.644 201.727 101.923 201.67 102.04 201.483C102.158 201.297 102.098 200.965 101.901 200.865C101.705 200.764 101.38 200.849 101.311 201.059" fill="white"/>
</g>
<path d="M101.14 206.98C101.11 207.015 100.806 206.736 100.33 206.727C99.8541 206.703 99.5312 206.96 99.5047 206.923C99.4916 206.909 99.552 206.821 99.697 206.729C99.84 206.638 100.073 206.56 100.336 206.568C100.598 206.578 100.825 206.673 100.962 206.774C101.1 206.874 101.154 206.967 101.14 206.98Z" fill="#263238"/>
<path d="M101.065 208.075C101.046 208.118 100.738 207.998 100.352 208.054C99.9659 208.101 99.6997 208.297 99.6705 208.261C99.6363 208.235 99.891 207.953 100.331 207.896C100.771 207.835 101.091 208.042 101.065 208.075Z" fill="#263238"/>
<path d="M101.505 205.454C101.488 205.499 101.015 205.313 100.408 205.347C99.8006 205.372 99.3474 205.602 99.3263 205.559C99.2998 205.528 99.749 205.216 100.4 205.188C101.051 205.153 101.528 205.421 101.505 205.454Z" fill="#263238"/>
<path d="M100.722 203.389C100.722 203.437 100.289 203.448 99.807 203.644C99.3219 203.834 99 204.124 98.9673 204.089C98.9347 204.065 99.2275 203.702 99.7481 203.497C100.267 203.287 100.729 203.349 100.722 203.389Z" fill="#263238"/>
<path d="M99.8548 201.449C99.8516 201.496 99.386 201.441 98.8951 201.689C98.3988 201.926 98.1582 202.329 98.1188 202.303C98.1018 202.294 98.1367 202.179 98.2494 202.022C98.3607 201.866 98.5598 201.678 98.825 201.547C99.091 201.416 99.3617 201.374 99.553 201.381C99.7454 201.387 99.858 201.43 99.8548 201.449Z" fill="#263238"/>
<path d="M98.7418 201.315C98.7334 201.319 98.6787 201.237 98.6205 201.069C98.5632 200.903 98.504 200.647 98.5251 200.326C98.5414 200.172 98.5446 199.98 98.6899 199.811C98.7619 199.726 98.9059 199.681 99.0237 199.734C99.1395 199.784 99.2128 199.881 99.2621 199.985C99.4435 200.407 99.2659 200.974 98.8218 201.246C98.3718 201.511 97.8218 201.433 97.472 201.156C97.3888 201.08 97.3088 200.978 97.3101 200.844C97.3098 200.708 97.4237 200.603 97.5258 200.577C97.735 200.518 97.9094 200.575 98.0621 200.608C98.3718 200.688 98.599 200.817 98.743 200.918C98.888 201.02 98.953 201.093 98.9469 201.1C98.9315 201.128 98.6342 200.851 98.0362 200.717C97.8886 200.691 97.7149 200.652 97.568 200.702C97.4963 200.726 97.4493 200.78 97.4496 200.846C97.4483 200.911 97.4995 200.988 97.568 201.045C97.8595 201.27 98.3626 201.34 98.7392 201.11C99.1158 200.885 99.271 200.386 99.1283 200.045C99.0928 199.964 99.0342 199.892 98.9693 199.863C98.9053 199.835 98.8342 199.851 98.7846 199.903C98.6794 200.012 98.6557 200.19 98.6371 200.337C98.5766 200.946 98.7741 201.308 98.7418 201.315Z" fill="#263238"/>
<path d="M106.434 185.421L97.8876 179.669L100.716 151.895L92.6207 147.168L85.2182 145.452C85.2182 145.452 82.1263 151.884 80.7516 156.002C77.8275 164.758 75.775 167.897 76.2441 174.244C76.3926 176.253 83.8111 181.278 88.4963 184.07C88.5606 184.711 88.6425 185.271 88.7449 185.733C90.3459 192.971 95.2326 202.596 95.2326 202.596L102.659 199.143L100.263 190.936L102.759 192.392L106.434 185.421ZM88.0636 167.513L89.0607 163.061C88.8499 165.891 88.6572 168.844 88.5193 171.676C88.0393 170.367 87.8758 168.913 88.0636 167.513Z" fill="#2B44FF"/>
<path d="M95.2313 202.595C95.2287 202.596 95.2092 202.556 95.1737 202.478C95.1359 202.392 95.085 202.276 95.0197 202.128C94.8853 201.81 94.6924 201.355 94.4457 200.773C93.9522 199.594 93.246 197.886 92.3961 195.766C91.5509 193.643 90.5442 191.116 89.5305 188.269C89.278 187.557 89.0303 186.823 88.7977 186.065C88.6946 185.681 88.5653 185.303 88.4978 184.897C88.4783 184.797 88.4556 184.696 88.4393 184.595L88.4037 184.292C88.381 184.09 88.3586 183.886 88.3356 183.682C88.2485 182.864 88.1765 182.03 88.1231 181.182C88.0962 180.758 88.0732 180.33 88.0565 179.9C88.0412 179.471 88.0217 179.033 88.0466 178.597C88.1721 175.107 88.4655 171.799 88.7068 168.788C88.9583 165.78 89.1849 163.07 89.3753 160.792C89.5596 158.515 89.6885 156.672 89.7615 155.397C89.8012 154.759 89.8233 154.264 89.8383 153.928C89.8473 153.766 89.854 153.64 89.8591 153.546C89.8645 153.46 89.869 153.416 89.8716 153.416C89.8741 153.416 89.8754 153.46 89.8754 153.547C89.8741 153.64 89.8725 153.767 89.8706 153.929C89.8658 154.265 89.854 154.761 89.8236 155.4C89.7695 156.676 89.6578 158.522 89.4876 160.8C89.3068 163.079 89.0917 165.79 88.853 168.799C88.6201 171.809 88.3308 175.121 88.206 178.6C88.1813 179.034 88.2005 179.463 88.2156 179.893C88.2322 180.322 88.2546 180.749 88.2812 181.171C88.334 182.017 88.405 182.849 88.4908 183.665C88.5132 183.869 88.5356 184.072 88.558 184.274L88.5929 184.576C88.6092 184.675 88.6313 184.772 88.6498 184.87C88.7138 185.261 88.8425 185.641 88.9436 186.021C89.1733 186.775 89.4188 187.508 89.669 188.22C90.6735 191.065 91.6693 193.597 92.5007 195.724C93.3439 197.84 94.0271 199.555 94.5029 200.749C94.7378 201.336 94.9215 201.795 95.0495 202.115C95.1087 202.266 95.1548 202.384 95.1887 202.471C95.2194 202.552 95.2338 202.594 95.2313 202.595Z" fill="#455A64"/>
<path d="M89.52 152.478C89.5129 152.486 89.4451 152.431 89.3251 152.32C89.2137 152.203 89.0787 152.006 88.9638 151.739C88.7337 151.205 88.6169 150.406 88.5996 149.536C88.5836 148.663 88.6483 147.877 88.7056 147.31C88.7644 146.744 88.8128 146.396 88.8339 146.398C88.8563 146.399 88.8476 146.752 88.8176 147.319C88.7891 147.886 88.7427 148.67 88.7584 149.533C88.7756 150.393 88.8732 151.174 89.0684 151.698C89.166 151.96 89.28 152.156 89.3724 152.28C89.4729 152.398 89.5267 152.47 89.52 152.478Z" fill="#455A64"/>
<path d="M86.3237 145.868C86.3397 145.864 86.4168 146.159 86.3874 146.644C86.3608 147.126 86.1967 147.804 85.7749 148.423C85.3525 149.043 84.782 149.443 84.3436 149.644C83.902 149.849 83.5999 149.885 83.5973 149.869C83.5896 149.843 83.8783 149.768 84.293 149.544C84.7058 149.323 85.2402 148.925 85.6437 148.333C86.0469 147.741 86.2216 147.099 86.2757 146.634C86.3324 146.166 86.2965 145.87 86.3237 145.868Z" fill="#455A64"/>
<path d="M99.6042 162.015C99.6071 162.015 99.6065 162.044 99.6026 162.1C99.5972 162.164 99.5905 162.246 99.5818 162.347C99.5588 162.575 99.5271 162.892 99.4868 163.295C99.3959 164.13 99.2663 165.317 99.1073 166.78C98.7732 169.731 98.3137 173.788 97.8065 178.269C97.6103 180.512 97.8062 182.672 98.2273 184.574C98.4353 185.528 98.7111 186.413 99.001 187.232C99.2884 188.053 99.5562 188.817 99.8014 189.517C100.283 190.906 100.674 192.035 100.95 192.828C101.079 193.212 101.181 193.514 101.254 193.731C101.285 193.828 101.31 193.906 101.33 193.968C101.346 194.021 101.353 194.049 101.35 194.05C101.348 194.051 101.335 194.025 101.314 193.973C101.291 193.913 101.261 193.836 101.224 193.742C101.144 193.527 101.033 193.228 100.891 192.849C100.605 192.059 100.197 190.936 99.6958 189.554C99.4452 188.856 99.1713 188.094 98.8772 187.276C98.5809 186.456 98.298 185.564 98.0849 184.606C97.6529 182.692 97.4506 180.516 97.6484 178.255C98.1482 173.761 98.6449 169.708 98.9959 166.768C99.1764 165.308 99.3226 164.123 99.4257 163.289C99.4788 162.888 99.5204 162.571 99.5505 162.344C99.5655 162.243 99.5774 162.162 99.587 162.098C99.5956 162.043 99.6017 162.015 99.6042 162.015Z" fill="#455A64"/>
<path d="M85.2178 145.4L86.5285 142.05L89.5199 146.511L85.5317 145.514" fill="#FFBE9D"/>
<path d="M116.521 135.331L112.97 127.373C112.546 126.093 111.75 125.894 111.083 125.152L102.189 120.136C95.7078 117.481 92.1788 126.384 92.1788 126.384L86.2876 139.822C79.3599 142.118 84.2652 147.439 84.2652 147.439C84.2652 147.439 82.3807 144.164 84.2338 142.982C86.1743 141.744 88.3257 145.005 90.3926 148.101C92.8329 151.757 100.762 154.132 100.762 154.132C101.69 153.152 101.431 149.731 102.157 147.895C102.387 147.313 107.878 134.594 107.878 134.594L110.007 139.751C110.007 139.751 112.736 136.552 114.058 136.044C115.38 135.535 116.521 135.331 116.521 135.331Z" fill="#FF9B21"/>
<path d="M100.763 140.987C100.768 140.995 100.675 141.066 100.494 141.175C100.313 141.284 100.039 141.424 99.6844 141.558C98.9811 141.829 97.9164 142.039 96.7619 141.861C95.607 141.683 94.6553 141.161 94.0662 140.691C93.7686 140.456 93.55 140.24 93.4105 140.081C93.2707 139.923 93.2031 139.827 93.2105 139.821C93.2326 139.8 93.5315 140.162 94.134 140.601C94.7295 141.04 95.6636 141.531 96.7862 141.704C97.9084 141.877 98.9468 141.691 99.647 141.452C100.354 141.215 100.748 140.96 100.763 140.987Z" fill="#263238"/>
<path d="M86.0235 128.366L91.5121 128.884L100.292 119.604L95.1285 119.426L85.9326 120.334C85.9326 120.334 86.747 124.167 86.0235 128.366Z" fill="#FF9B21"/>
<path d="M93.6477 123.477C93.6525 123.479 93.6291 123.538 93.5805 123.647C93.5229 123.771 93.4499 123.927 93.3603 124.12C93.1591 124.55 92.8829 125.14 92.5459 125.859C91.8634 127.33 90.9578 129.379 89.9763 131.65C88.9949 133.923 88.1018 135.979 87.4269 137.454C87.0899 138.193 86.8119 138.787 86.6119 139.195C86.5171 139.385 86.44 139.54 86.3792 139.662C86.3245 139.769 86.2935 139.823 86.2883 139.821C86.2832 139.819 86.3047 139.759 86.3501 139.649C86.4039 139.523 86.472 139.364 86.5555 139.168C86.7456 138.733 87.0058 138.137 87.3239 137.408C87.9728 135.901 88.8551 133.852 89.8301 131.587C90.8119 129.314 91.7347 127.271 92.4439 125.811C92.7975 125.08 93.0915 124.493 93.3047 124.092C93.4051 123.905 93.4871 123.752 93.5517 123.632C93.6099 123.528 93.6426 123.474 93.6477 123.477Z" fill="#263238"/>
<path d="M110.399 126.175C110.414 126.202 110.074 126.38 109.609 126.775C109.375 126.97 109.122 127.231 108.867 127.542C108.62 127.859 108.377 128.229 108.171 128.645C107.972 129.064 107.833 129.484 107.737 129.875C107.651 130.267 107.603 130.627 107.594 130.932C107.572 131.541 107.643 131.918 107.612 131.923C107.602 131.925 107.579 131.832 107.546 131.662C107.527 131.577 107.51 131.472 107.503 131.348C107.494 131.226 107.475 131.085 107.482 130.93C107.476 130.618 107.513 130.247 107.594 129.843C107.684 129.44 107.823 129.006 108.028 128.575C108.239 128.148 108.494 127.769 108.754 127.45C109.021 127.135 109.289 126.876 109.538 126.688C109.656 126.587 109.777 126.514 109.879 126.445C109.98 126.374 110.074 126.323 110.152 126.285C110.307 126.205 110.394 126.165 110.399 126.175Z" fill="#263238"/>
<path d="M111.931 113.429L106.782 123.054C105.942 124.625 104.029 125.279 102.403 124.551C100.611 123.75 99.8703 121.6 100.788 119.866C101.273 118.948 101.676 118.198 101.676 118.198C101.676 118.198 99.4374 116.747 100.484 114.328C101.419 112.17 104.848 106.079 105.576 104.791L109.916 106.733C112.353 107.999 113.265 111.028 111.931 113.429Z" fill="#FFBE9D"/>
<path d="M101.69 118.162C101.69 118.162 103.155 118.966 105.225 118.674C105.225 118.674 103.709 120.074 101.405 118.783L101.69 118.162Z" fill="#EB996E"/>
<path d="M103.341 110.467C103.253 110.646 103.332 110.867 103.517 110.962C103.701 111.057 103.922 110.99 104.01 110.811C104.097 110.632 104.018 110.411 103.834 110.316C103.649 110.221 103.428 110.289 103.341 110.467Z" fill="#263238"/>
<path d="M103.364 110.16C103.386 110.224 103.733 110.148 104.102 110.315C104.473 110.476 104.659 110.787 104.719 110.76C104.748 110.749 104.741 110.648 104.661 110.51C104.583 110.372 104.422 110.2 104.191 110.098C103.961 109.996 103.729 109.994 103.579 110.031C103.426 110.067 103.351 110.131 103.364 110.16Z" fill="#263238"/>
<path d="M106.798 112.168C106.71 112.346 106.789 112.568 106.974 112.663C107.159 112.757 107.379 112.69 107.467 112.511C107.555 112.333 107.476 112.111 107.291 112.016C107.106 111.921 106.886 111.989 106.798 112.168Z" fill="#263238"/>
<path d="M106.964 111.855C106.986 111.919 107.333 111.843 107.702 112.01C108.073 112.171 108.259 112.482 108.32 112.455C108.348 112.444 108.342 112.343 108.262 112.204C108.183 112.067 108.022 111.894 107.792 111.792C107.561 111.691 107.329 111.689 107.179 111.725C107.027 111.762 106.952 111.826 106.964 111.855Z" fill="#263238"/>
<path d="M104.397 113.997C104.408 113.977 104.196 113.834 103.845 113.62C103.755 113.568 103.674 113.509 103.687 113.437C103.695 113.359 103.78 113.275 103.875 113.186C104.066 112.997 104.266 112.799 104.476 112.592C105.322 111.742 105.979 111.026 105.944 110.992C105.91 110.959 105.196 111.62 104.351 112.47C104.144 112.681 103.948 112.881 103.76 113.074C103.676 113.165 103.56 113.259 103.545 113.422C103.539 113.504 103.585 113.586 103.638 113.629C103.691 113.675 103.743 113.7 103.789 113.724C104.154 113.911 104.386 114.017 104.397 113.997Z" fill="#263238"/>
<path d="M105.37 114.739C105.312 114.709 105.131 115.11 104.66 115.241C104.19 115.373 103.782 115.137 103.754 115.191C103.737 115.214 103.814 115.312 103.992 115.398C104.167 115.483 104.451 115.542 104.739 115.462C105.027 115.381 105.221 115.188 105.309 115.029C105.399 114.868 105.399 114.749 105.37 114.739Z" fill="#263238"/>
<path d="M107.517 110.365C107.508 110.482 107.898 110.599 108.309 110.845C108.724 111.083 109.017 111.367 109.115 111.303C109.16 111.271 109.141 111.149 109.043 110.988C108.947 110.828 108.764 110.636 108.517 110.491C108.269 110.346 108.012 110.28 107.826 110.274C107.638 110.267 107.523 110.31 107.517 110.365Z" fill="#263238"/>
<path d="M103.978 109.151C104.006 109.264 104.299 109.291 104.607 109.424C104.92 109.546 105.147 109.733 105.246 109.672C105.292 109.641 105.288 109.539 105.211 109.409C105.134 109.28 104.977 109.131 104.763 109.043C104.55 108.956 104.334 108.95 104.189 108.989C104.042 109.027 103.968 109.097 103.978 109.151Z" fill="#263238"/>
<path d="M110.314 114.873C110.363 114.874 112.185 115.124 111.397 116.745C110.608 118.366 109.143 117.24 109.163 117.193C109.183 117.145 110.314 114.873 110.314 114.873Z" fill="#FFBE9D"/>
<path d="M109.956 116.819C109.965 116.818 109.974 116.853 110.011 116.898C110.047 116.942 110.12 116.996 110.22 117.005C110.422 117.025 110.699 116.823 110.848 116.535C110.924 116.389 110.962 116.234 110.966 116.092C110.975 115.949 110.938 115.829 110.859 115.772C110.783 115.71 110.697 115.732 110.655 115.768C110.611 115.803 110.606 115.84 110.596 115.839C110.589 115.841 110.574 115.795 110.62 115.734C110.642 115.706 110.679 115.676 110.733 115.664C110.787 115.651 110.852 115.663 110.909 115.699C111.03 115.768 111.087 115.938 111.082 116.093C111.084 116.253 111.045 116.429 110.96 116.593C110.791 116.915 110.475 117.139 110.207 117.093C110.079 117.067 110 116.987 109.97 116.924C109.94 116.86 109.949 116.82 109.956 116.819Z" fill="#EB996E"/>
<path d="M111.254 115.225C111.031 115.053 110.493 115.09 110.281 115.277C110.069 115.464 109.926 115.719 109.715 115.907C109.503 116.094 109.167 116.198 108.942 116.027C108.788 115.909 108.736 115.691 108.768 115.498C108.799 115.306 108.899 115.132 109 114.965C109.441 114.241 109.943 113.551 110.32 112.792C110.697 112.032 110.947 111.179 110.836 110.338C110.724 109.497 110.195 108.679 109.396 108.396C108.866 108.208 108.278 108.265 107.738 108.109C107.099 107.924 106.557 107.426 106.318 106.805C106.288 106.725 106.107 106.441 106.107 106.441C106.125 106.401 106.316 106.074 106.508 106.01C107.932 105.529 109.864 106.081 111.045 107.012C112.225 107.942 113.052 109.44 113.067 110.943C113.08 112.446 112.134 114.104 111.254 115.225Z" fill="#263238"/>
<path d="M111.271 115.063C111.722 114.297 112.452 113.741 113.011 113.05C113.568 112.359 113.952 111.384 113.555 110.59C113.419 110.318 113.202 110.091 113.088 109.809C112.974 109.526 112.974 109.212 112.93 108.91C112.795 107.977 112.205 107.12 111.381 106.661C110.811 106.343 110.154 106.213 109.576 105.909C108.662 105.429 107.993 104.538 107.033 104.158C106.714 104.032 106.341 103.971 106.036 104.128C105.731 104.285 105.568 104.727 105.79 104.988C105.75 104.682 105.353 104.513 105.071 104.641C104.789 104.768 104.645 105.103 104.664 105.412C104.683 105.72 104.836 106.005 105.013 106.258C105.597 107.094 106.489 107.708 107.477 107.955L109.686 107.783L111.497 109.125L112.838 111.258L110.407 114.416L111.271 115.063Z" fill="#263238"/>
<path d="M97.4492 102.471C97.1715 98.1717 93.4607 94.9115 89.1612 95.1893C84.8617 95.4671 81.6015 99.1778 81.8793 103.477C82.0806 106.59 84.0815 109.157 86.8022 110.232C86.8617 111.154 86.9289 112.196 86.9289 112.196L93.7523 111.755C93.7523 111.755 93.7222 110.65 93.6739 109.665C96.0975 108.21 97.6441 105.487 97.4492 102.471Z" fill="#77A8AF"/>
<path d="M91.2826 111.882C91.2826 111.882 91.2813 111.849 91.2842 111.786C91.2874 111.718 91.2919 111.624 91.2979 111.503C91.312 111.254 91.3325 110.888 91.3709 110.416C91.4099 109.945 91.465 109.368 91.5712 108.704C91.6807 108.041 91.8394 107.287 92.1376 106.492C92.2871 106.095 92.4634 105.686 92.7027 105.285C92.8263 105.089 92.9843 104.895 93.2042 104.773C93.4237 104.65 93.7069 104.632 93.945 104.749C94.0627 104.808 94.1661 104.912 94.2112 105.042C94.2608 105.169 94.2573 105.317 94.2045 105.443C94.1002 105.697 93.8816 105.884 93.6365 106C93.1341 106.213 92.5386 106.206 92.0106 105.99C91.481 105.775 91.0397 105.322 90.8275 104.763C90.7251 104.484 90.6592 104.177 90.7235 103.868C90.7773 103.561 91.0535 103.272 91.3959 103.281C91.5655 103.283 91.7258 103.388 91.8099 103.53C91.8973 103.671 91.9283 103.843 91.9034 104.006C91.8493 104.335 91.6307 104.594 91.4061 104.815C90.9418 105.252 90.288 105.52 89.6256 105.459C88.9677 105.396 88.3549 105.004 88.0477 104.434C87.888 104.154 87.8314 103.805 87.9341 103.494C87.9859 103.34 88.0957 103.193 88.2531 103.128C88.4077 103.056 88.5891 103.074 88.7354 103.141C88.8832 103.207 89.0074 103.324 89.0861 103.461C89.1674 103.598 89.2109 103.751 89.2339 103.902C89.2755 104.205 89.2519 104.511 89.1731 104.799C89.0199 105.376 88.6474 105.878 88.16 106.175C87.6749 106.476 87.096 106.585 86.5635 106.501C86.3005 106.46 86.0285 106.374 85.8387 106.174C85.6531 105.98 85.5837 105.657 85.7472 105.427C85.8288 105.316 85.9578 105.252 86.0861 105.234C86.2151 105.216 86.3453 105.234 86.4621 105.282C86.7005 105.381 86.8557 105.586 86.9731 105.785C87.1962 106.195 87.3795 106.595 87.5639 106.976C88.2877 108.505 88.8131 109.77 89.1667 110.646C89.3434 111.084 89.4752 111.427 89.5639 111.66C89.6061 111.774 89.6387 111.862 89.6624 111.925C89.6842 111.985 89.6928 112.017 89.6928 112.017C89.6928 112.017 89.6778 111.988 89.6531 111.929C89.6275 111.866 89.5917 111.779 89.5459 111.667C89.4499 111.433 89.3107 111.094 89.1322 110.66C88.768 109.788 88.2336 108.528 87.5027 107.005C87.3178 106.627 87.1293 106.222 86.9095 105.822C86.7955 105.629 86.6451 105.439 86.4333 105.353C86.2279 105.268 85.9488 105.286 85.8112 105.474C85.6762 105.66 85.7328 105.948 85.8983 106.117C86.0675 106.295 86.3223 106.379 86.5767 106.417C87.0893 106.496 87.648 106.39 88.1136 106.1C88.5808 105.813 88.9379 105.33 89.0848 104.774C89.1603 104.498 89.1821 104.203 89.1421 103.915C89.1031 103.631 88.9645 103.341 88.697 103.225C88.5687 103.167 88.4179 103.154 88.2912 103.213C88.1619 103.267 88.0704 103.387 88.0237 103.524C87.9325 103.803 87.9805 104.124 88.1319 104.387C88.4218 104.926 89.009 105.304 89.6346 105.362C90.265 105.421 90.8944 105.164 91.3408 104.744C91.5584 104.532 91.7639 104.282 91.8099 103.991C91.832 103.849 91.8042 103.699 91.7299 103.579C91.6573 103.458 91.5306 103.376 91.3927 103.374C91.2551 103.369 91.1165 103.429 91.0138 103.524C90.9091 103.617 90.8445 103.748 90.8144 103.887C90.7549 104.166 90.8151 104.463 90.9133 104.729C91.1155 105.266 91.5386 105.701 92.0448 105.908C92.5485 106.117 93.128 106.123 93.6013 105.923C93.8311 105.816 94.0365 105.637 94.1283 105.413C94.2269 105.189 94.1219 104.918 93.9088 104.82C93.7002 104.715 93.4387 104.729 93.2413 104.84C93.0381 104.951 92.8864 105.133 92.7655 105.324C92.5299 105.715 92.3511 106.123 92.2013 106.515C91.9011 107.303 91.7383 108.052 91.6243 108.712C91.5133 109.373 91.4531 109.949 91.4083 110.419C91.369 110.887 91.3386 111.252 91.3175 111.503C91.3075 111.624 91.2999 111.718 91.2944 111.786C91.288 111.85 91.2826 111.882 91.2826 111.882Z" fill="#263238"/>
<path d="M93.3078 113.052L87.4496 113.43C87.2067 113.446 86.9971 113.262 86.9814 113.019C86.9657 112.776 87.1497 112.567 87.3926 112.551L93.2508 112.173C93.4937 112.157 93.7033 112.341 93.719 112.584C93.7347 112.827 93.5507 113.036 93.3078 113.052Z" fill="#263238"/>
<path d="M93.3334 113.436L87.4751 113.815C87.2322 113.83 87.0482 114.04 87.0639 114.283C87.0796 114.526 87.2892 114.71 87.5321 114.694L88.175 114.653L89.133 116.221C89.2428 116.401 89.4428 116.504 89.6524 116.491L91.7458 116.356C91.9577 116.342 92.1442 116.211 92.2287 116.016L92.9532 114.344L93.3903 114.316C93.6332 114.3 93.8172 114.09 93.8015 113.847C93.7855 113.605 93.5762 113.421 93.3334 113.436Z" fill="#263238"/>
<g opacity="0.2">
<path d="M84.3425 98.3372C84.8347 97.82 85.3614 97.4453 85.8347 97.2002C86.3079 96.9538 86.7195 96.8226 87.0119 96.774C87.3047 96.7244 87.474 96.742 87.4923 96.8031C87.5351 96.9423 86.9585 97.19 86.1979 97.7724C85.4395 98.3432 84.5057 99.3167 83.9899 100.641C83.4779 101.966 83.5108 103.315 83.6859 104.248C83.8548 105.191 84.1137 105.762 83.9879 105.836C83.9332 105.869 83.7963 105.768 83.6135 105.534C83.4305 105.301 83.2148 104.927 83.0318 104.425C82.8478 103.925 82.7115 103.294 82.6967 102.58C82.6807 101.867 82.7985 101.073 83.0961 100.294" fill="white"/>
</g>
<g opacity="0.2">
<path d="M89.3862 97.0175C88.8925 97.0447 88.4483 96.9381 88.3811 96.6799C88.351 96.5519 88.4333 96.4079 88.6045 96.2885C88.7747 96.1695 89.0342 96.0783 89.3293 96.0607C89.6243 96.0434 89.8928 96.1029 90.0758 96.2008C90.2601 96.2991 90.359 96.4322 90.3443 96.5631" fill="white"/>
</g>
<path d="M92.1282 116.162C92.1221 116.177 91.9704 116.119 91.7176 116.064C91.4655 116.008 91.108 115.967 90.7157 116.003C90.3237 116.04 89.98 116.148 89.7426 116.249C89.5045 116.35 89.3663 116.435 89.3576 116.421C89.3516 116.413 89.4776 116.307 89.7144 116.187C89.9499 116.067 90.3023 115.946 90.7071 115.907C91.1119 115.87 91.4805 115.924 91.7343 115.998C91.989 116.072 92.1327 116.153 92.1282 116.162Z" fill="#455A64"/>
<path d="M92.9662 114.363C92.9678 114.389 91.9102 114.479 90.604 114.563C89.2974 114.648 88.237 114.695 88.2354 114.668C88.2338 114.642 89.291 114.552 90.5979 114.468C91.9042 114.383 92.9646 114.336 92.9662 114.363Z" fill="#455A64"/>
<path d="M92.6445 115.082C92.6461 115.095 92.4272 115.132 92.0713 115.178C91.7155 115.223 91.223 115.276 90.6774 115.319C90.1318 115.362 89.6368 115.387 89.2784 115.398C88.92 115.409 88.6979 115.406 88.6973 115.393C88.6966 115.379 88.9174 115.358 89.2745 115.33C89.6605 115.301 90.1395 115.264 90.6697 115.223C91.1993 115.18 91.6784 115.142 92.064 115.11C92.4214 115.082 92.6429 115.068 92.6445 115.082Z" fill="#455A64"/>
<path d="M50.4546 154.273L51.7266 156.311C51.7266 156.311 57.1541 151.316 62.5384 152.728C62.5384 152.728 57.6997 148.625 50.4546 154.273Z" fill="#77A8AF"/>
<path d="M62.54 152.728C62.54 152.728 66.524 148.402 72.3656 149.389L73.9586 149.629L73.4498 148.709C73.4498 148.709 63.2901 145.229 62.54 152.728Z" fill="#77A8AF"/>
<path d="M54.1314 138.14C54.1314 138.14 46.1512 136.767 40.917 139.599L49.228 155.247C49.228 155.247 56.0309 148.69 62.5407 152.728L54.1314 138.14Z" fill="#F5F5F5"/>
<path d="M54.1304 138.141C54.1313 138.139 54.1457 138.16 54.1729 138.204C54.2027 138.254 54.2421 138.318 54.2926 138.401C54.4001 138.583 54.5537 138.843 54.7525 139.179C55.1557 139.87 55.7409 140.872 56.4824 142.141C57.9691 144.705 60.0817 148.349 62.6008 152.693C62.6203 152.727 62.6088 152.77 62.5752 152.789C62.5521 152.802 62.524 152.801 62.5025 152.788C61.5998 152.233 60.5627 151.813 59.443 151.613C58.882 151.521 58.3041 151.482 57.7182 151.494C57.1326 151.517 56.5409 151.591 55.9512 151.716C53.5941 152.239 51.3041 153.519 49.3502 155.241L49.2817 155.304C49.2501 155.335 49.1998 155.334 49.1694 155.303C49.1646 155.297 49.1595 155.29 49.1563 155.285C46.0689 149.461 43.2075 144.063 40.8577 139.63C40.8405 139.599 40.8517 139.56 40.8827 139.543L40.8843 139.542C42.7144 138.596 44.5713 138.185 46.2037 137.968C47.8433 137.756 49.2833 137.749 50.4603 137.783C51.6382 137.822 52.5573 137.916 53.1803 137.993C53.492 138.031 53.7297 138.067 53.8894 138.094C53.9653 138.107 54.0245 138.118 54.0705 138.126C54.1118 138.134 54.1313 138.139 54.1304 138.141C54.1294 138.142 54.1077 138.14 54.0677 138.136C54.0216 138.13 53.9624 138.123 53.8865 138.113C53.7262 138.094 53.4878 138.064 53.1758 138.032C52.5521 137.968 51.6341 137.885 50.4584 137.857C49.284 137.835 47.8485 137.853 46.2177 138.072C44.5947 138.298 42.7518 138.716 40.947 139.657L40.9736 139.569C43.3301 143.997 46.2005 149.391 49.2971 155.21L49.1717 155.19L49.2427 155.124C50.2277 154.242 51.3048 153.502 52.4245 152.892C53.5464 152.287 54.7224 151.824 55.9185 151.566C56.5169 151.44 57.1179 151.366 57.7134 151.343C58.3092 151.332 58.8971 151.372 59.468 151.467C60.6075 151.673 61.6619 152.104 62.5761 152.668L62.4779 152.763C59.9864 148.416 57.8965 144.769 56.4261 142.203C55.6971 140.922 55.1217 139.911 54.7253 139.214C54.5323 138.871 54.3832 138.606 54.2789 138.42C54.2312 138.333 54.1941 138.265 54.1659 138.213C54.1413 138.167 54.1291 138.142 54.1304 138.141Z" fill="#263238"/>
<path d="M66.6757 134.929C66.6757 134.929 60.6392 131.082 54.2344 138.14L62.6437 152.727C62.6437 152.727 64.3598 146.806 74.3992 148.866L66.6757 134.929Z" fill="#F5F5F5"/>
<path d="M66.6749 134.929C66.6762 134.928 66.6896 134.949 66.7149 134.991C66.7427 135.038 66.7789 135.1 66.8256 135.179C66.9248 135.353 67.0662 135.601 67.249 135.922C67.6198 136.582 68.1574 137.538 68.8387 138.751C70.2032 141.198 72.1434 144.678 74.4595 148.832C74.4784 148.866 74.4662 148.908 74.4326 148.927C74.4182 148.935 74.4022 148.938 74.3872 148.935L74.3843 148.935C73.8954 148.854 73.3971 148.772 72.8896 148.689C72.6368 148.638 72.3779 148.624 72.1174 148.603C71.857 148.582 71.5942 148.561 71.3296 148.54C71.065 148.509 70.7974 148.516 70.528 148.521C70.2586 148.524 69.9872 148.528 69.7136 148.531C69.4403 148.537 69.1683 148.587 68.8928 148.612C68.6182 148.647 68.3382 148.662 68.0675 148.737C67.7942 148.799 67.5194 148.861 67.2426 148.923C66.975 149.017 66.7062 149.111 66.4358 149.206C66.1651 149.299 65.9162 149.448 65.6528 149.568C65.5194 149.625 65.3971 149.703 65.2762 149.784L64.9082 150.02C64.6656 150.182 64.4483 150.381 64.2192 150.565C64.0176 150.779 63.7904 150.973 63.6141 151.213C63.2368 151.667 62.9146 152.191 62.7194 152.749L62.7178 152.753C62.7034 152.794 62.6579 152.816 62.6166 152.802C62.5981 152.795 62.5834 152.782 62.5741 152.767C62.4669 152.581 62.351 152.38 62.2352 152.178C59.2618 147.011 56.4912 142.196 54.176 138.173C54.161 138.147 54.1654 138.115 54.1843 138.095C55.6064 136.544 57.1757 135.36 58.7398 134.67C60.3005 133.961 61.823 133.785 63.0368 133.863C64.2586 133.939 65.1843 134.236 65.7856 134.479C66.088 134.601 66.3101 134.716 66.4579 134.795C66.5267 134.836 66.5808 134.867 66.6227 134.891C66.6589 134.916 66.6762 134.928 66.6749 134.929C66.6736 134.931 66.6538 134.921 66.617 134.901C66.5741 134.879 66.519 134.851 66.4483 134.815C66.2979 134.741 66.0736 134.633 65.7706 134.518C65.1674 134.288 64.2442 134.005 63.0323 133.942C61.8282 133.876 60.3242 134.061 58.7837 134.77C57.2397 135.462 55.6899 136.641 54.2829 138.185L54.2912 138.107C56.6128 142.127 59.3907 146.937 62.3722 152.1C62.4883 152.301 62.6042 152.502 62.711 152.688L62.5661 152.706C62.775 152.109 63.1027 151.584 63.4909 151.114C63.6723 150.867 63.9043 150.669 64.1117 150.45C64.3459 150.261 64.5693 150.057 64.8173 149.892L65.1936 149.651C65.3178 149.569 65.4429 149.49 65.5786 149.431C65.847 149.309 66.1018 149.158 66.3776 149.063C66.6531 148.967 66.927 148.871 67.1994 148.776C67.4803 148.713 67.7597 148.65 68.0371 148.588C68.3126 148.512 68.5958 148.498 68.8739 148.463C69.153 148.437 69.4288 148.388 69.705 148.382C69.9811 148.379 70.2554 148.376 70.5277 148.373C70.8 148.368 71.0701 148.362 71.3366 148.394C71.6035 148.416 71.8682 148.438 72.1309 148.459C72.3933 148.48 72.6547 148.496 72.9085 148.547C73.4189 148.632 73.9203 148.716 74.4118 148.799L74.3366 148.901C72.0448 144.74 70.1248 141.255 68.7744 138.804C68.1066 137.582 67.5798 136.617 67.2163 135.952C67.0406 135.626 66.9043 135.373 66.809 135.195C66.7658 135.113 66.7322 135.048 66.7062 134.999C66.6845 134.954 66.6736 134.931 66.6749 134.929Z" fill="#263238"/>
<path d="M43.165 132.077L52.1647 149.406C52.1647 149.406 59.479 149.086 62.5746 152.65L54.2342 138.14C54.2342 138.14 49.3433 132.077 43.165 132.077Z" fill="#F5F5F5"/>
<path d="M43.1647 132.077C43.1647 132.077 43.239 132.078 43.3929 132.085C43.5564 132.091 43.7878 132.101 44.0867 132.113C44.1631 132.117 44.2454 132.118 44.3299 132.127C44.4134 132.141 44.5011 132.156 44.5926 132.171C44.7769 132.201 44.9775 132.235 45.1942 132.271C45.4137 132.297 45.6393 132.371 45.8835 132.435C46.1251 132.509 46.3913 132.558 46.6553 132.664C48.806 133.38 51.6905 135.114 54.2841 138.099L54.2889 138.106L54.2899 138.108C56.6646 142.23 59.5391 147.222 62.6428 152.61C62.6646 152.648 62.6518 152.697 62.6137 152.719C62.582 152.737 62.543 152.731 62.5183 152.706L62.5142 152.702C62.4028 152.591 62.2822 152.471 62.1612 152.351C61.4918 151.702 60.6995 151.19 59.8575 150.829C59.0201 150.459 58.1551 150.173 57.2831 149.985C55.5436 149.594 53.8076 149.447 52.1676 149.48H52.1657C52.1366 149.48 52.111 149.464 52.0985 149.44C49.4748 144.352 47.2335 140.006 45.6447 136.925C44.8611 135.398 44.2383 134.185 43.8083 133.347C43.5993 132.938 43.4374 132.62 43.3244 132.399C43.2726 132.296 43.2326 132.217 43.2025 132.157C43.1756 132.103 43.1628 132.076 43.1647 132.077C43.1667 132.078 43.183 132.108 43.2134 132.164C43.2463 132.225 43.2899 132.307 43.3462 132.412C43.4643 132.636 43.6335 132.956 43.8515 133.369C44.2921 134.208 44.9299 135.421 45.7327 136.949C47.3324 140.008 49.5891 144.322 52.2307 149.371L52.1615 149.331C53.8204 149.295 55.5609 149.44 57.3183 149.833C58.1983 150.021 59.0732 150.309 59.9231 150.684C60.7769 151.051 61.5862 151.572 62.2729 152.237C62.3967 152.361 62.5206 152.484 62.6348 152.598L62.5059 152.689C59.4115 147.295 56.5452 142.299 54.1775 138.173L54.1833 138.181C52.9164 136.692 51.5353 135.525 50.2441 134.616C48.9407 133.721 47.7011 133.098 46.6316 132.734C46.3699 132.627 46.1062 132.575 45.8668 132.499C45.6249 132.431 45.4009 132.355 45.1833 132.326C44.9683 132.287 44.7689 132.251 44.5862 132.218C44.495 132.201 44.4079 132.185 44.3251 132.17C44.2425 132.16 44.1641 132.158 44.0902 132.151C43.5404 132.108 43.2851 132.087 43.1647 132.077Z" fill="#263238"/>
<path d="M71.2564 181.224L71.4497 181.544C71.6667 181.905 71.9822 182.196 72.3592 182.382L72.6952 182.548L72.3739 182.741C72.0136 182.958 71.7227 183.274 71.5364 183.651L71.3704 183.987L71.1771 183.666C70.9601 183.305 70.6446 183.015 70.2676 182.828L69.9316 182.662L70.2526 182.469C70.6129 182.252 70.9038 181.936 71.09 181.56L71.2564 181.224Z" fill="white" fill-opacity="0.16"/>
<path d="M53.5138 115.218L53.707 115.539C53.924 115.9 54.2395 116.19 54.6165 116.377L54.9525 116.543L54.6315 116.736C54.2712 116.953 53.9803 117.269 53.7938 117.646L53.6277 117.982L53.4344 117.661C53.2174 117.3 52.9019 117.009 52.525 116.823L52.189 116.657L52.5102 116.464C52.8706 116.247 53.1614 115.931 53.3477 115.554L53.5138 115.218Z" fill="white" fill-opacity="0.16"/>
<path d="M135.621 126.607L135.814 126.929C136.031 127.289 136.347 127.58 136.724 127.766L137.06 127.932L136.739 128.125C136.379 128.342 136.088 128.658 135.901 129.035L135.735 129.371L135.542 129.05C135.325 128.69 135.009 128.399 134.632 128.212L134.296 128.046L134.617 127.853C134.978 127.636 135.269 127.321 135.455 126.944L135.621 126.607Z" fill="white" fill-opacity="0.16"/>
<path d="M125.927 185.37L126.12 185.691C126.337 186.051 126.653 186.342 127.03 186.529L127.366 186.695L127.045 186.888C126.684 187.105 126.394 187.42 126.207 187.797L126.041 188.133L125.848 187.812C125.631 187.452 125.315 187.161 124.939 186.975L124.603 186.809L124.924 186.615C125.284 186.398 125.575 186.083 125.761 185.706L125.927 185.37Z" fill="white" fill-opacity="0.16"/>
<path d="M127.771 197.718L127.863 197.755C127.967 197.797 128.081 197.808 128.191 197.787L128.289 197.769L128.251 197.861C128.21 197.965 128.199 198.079 128.219 198.189L128.238 198.287L128.145 198.25C128.042 198.208 127.928 198.197 127.818 198.218L127.72 198.236L127.757 198.144C127.799 198.04 127.81 197.926 127.789 197.816L127.771 197.718Z" fill="white" fill-opacity="0.16"/>
<path d="M133.356 114.22L133.449 114.257C133.552 114.299 133.666 114.31 133.776 114.289L133.874 114.27L133.837 114.363C133.795 114.467 133.784 114.58 133.805 114.69L133.823 114.788L133.731 114.751C133.627 114.709 133.513 114.698 133.404 114.719L133.306 114.738L133.343 114.645C133.384 114.541 133.396 114.428 133.375 114.318L133.356 114.22Z" fill="white" fill-opacity="0.16"/>
<path d="M57.1238 106.596L57.2163 106.633C57.32 106.675 57.4336 106.686 57.5436 106.665L57.6416 106.647L57.6044 106.739C57.5628 106.843 57.5516 106.957 57.5724 107.067L57.591 107.165L57.4985 107.128C57.3945 107.086 57.2809 107.075 57.1712 107.096L57.0732 107.114L57.1104 107.022C57.1523 106.918 57.1632 106.804 57.1424 106.694L57.1238 106.596Z" fill="white" fill-opacity="0.16"/>
<path d="M66.531 171.611L66.6235 171.648C66.7272 171.69 66.8411 171.701 66.9509 171.68L67.0488 171.662L67.0117 171.754C66.9697 171.858 66.9589 171.972 66.9797 172.081L66.9982 172.179L66.9057 172.142C66.8021 172.1 66.6881 172.089 66.5784 172.11L66.4805 172.129L66.5176 172.036C66.5592 171.933 66.5704 171.819 66.5496 171.709L66.531 171.611Z" fill="white" fill-opacity="0.16"/>
<path d="M76.7305 196.741C76.7305 196.741 76.7027 196.774 76.6432 196.835C76.5789 196.898 76.4909 196.986 76.3773 197.099C76.1363 197.333 75.7891 197.671 75.3433 198.106C74.4355 198.981 73.1277 200.243 71.5075 201.805L71.5225 201.768C71.7049 205.783 71.9526 211.24 72.2285 217.309L72.2349 217.447L72.1203 217.37C71.6803 217.076 71.2096 216.762 70.7353 216.444C67.5757 214.329 64.5849 212.327 61.9529 210.565L61.935 210.553L61.9283 210.533C60.6179 206.619 59.5126 203.319 58.7325 200.989C58.3494 199.831 58.0461 198.915 57.8365 198.281C57.7363 197.971 57.6585 197.731 57.6041 197.562C57.5801 197.484 57.5613 197.424 57.5469 197.377C57.5344 197.335 57.5289 197.313 57.5305 197.313C57.5321 197.312 57.5408 197.332 57.5565 197.373C57.5734 197.419 57.5952 197.479 57.6233 197.555C57.6822 197.723 57.7661 197.961 57.8742 198.268C58.0915 198.899 58.4061 199.812 58.8035 200.965C59.5952 203.291 60.7171 206.586 62.047 210.493L62.0224 210.461C64.6566 212.219 67.6502 214.218 70.8125 216.329C71.2867 216.646 71.7574 216.961 72.1974 217.255L72.0893 217.316C71.8294 211.246 71.5955 205.788 71.4237 201.772L71.4227 201.75L71.439 201.734C73.0723 200.185 74.3904 198.935 75.3056 198.067C75.759 197.641 76.1126 197.309 76.3577 197.079C76.4755 196.97 76.5667 196.886 76.6333 196.825C76.696 196.767 76.7305 196.741 76.7305 196.741Z" fill="white" fill-opacity="0.16"/>
<path d="M72.6418 215.482L72.6139 216.388L73.3445 216.925L72.4741 217.178L72.1893 218.039L71.6795 217.289L70.7729 217.284L71.3281 216.568L71.0526 215.704L71.9058 216.011L72.6418 215.482Z" fill="white" fill-opacity="0.16"/>
<path d="M62.0636 209.334L62.0812 209.92L62.5743 210.238L62.022 210.436L61.8719 211.003L61.5128 210.539L60.9272 210.572L61.2575 210.087L61.0456 209.54L61.6088 209.704L62.0636 209.334Z" fill="white" fill-opacity="0.16"/>
<path d="M57.5046 196.236L57.9471 196.804L58.6658 196.762L58.2623 197.358L58.5247 198.029L57.8329 197.829L57.2764 198.286L57.2524 197.566L56.646 197.178L57.3228 196.933L57.5046 196.236Z" fill="white" fill-opacity="0.16"/>
<path d="M76.2891 195.668L76.7313 196.236L77.45 196.194L77.0465 196.79L77.3089 197.461L76.6171 197.261L76.0606 197.718L76.0366 196.998L75.4302 196.61L76.107 196.365L76.2891 195.668Z" fill="white" fill-opacity="0.16"/>
<path d="M71.3574 201.155L71.64 201.518L72.0985 201.491L71.8409 201.871L72.0086 202.299L71.567 202.172L71.2118 202.463L71.1965 202.004L70.8096 201.756L71.2416 201.6L71.3574 201.155Z" fill="white" fill-opacity="0.16"/>
<path d="M54.421 176.954C57.9459 176.954 60.8034 174.096 60.8034 170.572C60.8034 167.047 57.9459 164.189 54.421 164.189C50.8961 164.189 48.0386 167.047 48.0386 170.572C48.0386 174.096 50.8961 176.954 54.421 176.954Z" fill="#77A8AF"/>
<g opacity="0.3">
<path d="M53.5912 172.564C53.5912 173.139 53.1253 173.605 52.5502 173.605C51.9752 173.605 51.5093 173.139 51.5093 172.564C51.5093 171.989 51.9752 171.523 52.5502 171.523C53.1253 171.523 53.5912 171.989 53.5912 172.564Z" fill="white"/>
</g>
<g opacity="0.3">
<path d="M52.1162 169.559C52.1162 169.894 51.8451 170.165 51.5107 170.165C51.1763 170.165 50.9053 169.894 50.9053 169.559C50.9053 169.225 51.1763 168.954 51.5107 168.954C51.8451 168.954 52.1162 169.225 52.1162 169.559Z" fill="white"/>
</g>
<path d="M48.2295 172.124C48.2579 172.235 42.7671 177.503 44.1824 178.626C45.5978 179.748 51.552 176.868 56.6275 172.769C61.7031 168.669 66.3395 163.691 65.0707 162.373C63.8019 161.056 57.4586 164.957 57.4586 164.957L58.2167 165.44C58.2167 165.44 62.0519 162.98 63.265 163.935C64.4781 164.89 61.0199 168.62 56.1395 172.183C51.2592 175.746 46.5434 178.246 45.8115 177.27C45.0794 176.294 48.5338 173.038 48.5338 173.038L48.2295 172.124Z" fill="#77A8AF"/>
<g opacity="0.3">
<path d="M48.2295 172.124C48.2579 172.235 42.7671 177.503 44.1824 178.626C45.5978 179.748 51.552 176.868 56.6275 172.769C61.7031 168.669 66.3395 163.691 65.0707 162.373C63.8019 161.056 57.4586 164.957 57.4586 164.957L58.2167 165.44C58.2167 165.44 62.0519 162.98 63.265 163.935C64.4781 164.89 61.0199 168.62 56.1395 172.183C51.2592 175.746 46.5434 178.246 45.8115 177.27C45.0794 176.294 48.5338 173.038 48.5338 173.038L48.2295 172.124Z" fill="black"/>
</g>
<g opacity="0.3">
<path d="M50.9056 166.076C50.9571 166.138 50.5245 166.505 50.0349 167.242C49.545 167.968 49.0326 169.117 49.0045 170.45C48.9795 171.783 49.4458 172.952 49.9062 173.697C50.3661 174.453 50.7837 174.837 50.7296 174.896C50.6973 174.941 50.1843 174.645 49.6166 173.892C49.3341 173.518 49.0525 173.028 48.8416 172.439C48.6301 171.853 48.4995 171.166 48.5104 170.44C48.5286 169.714 48.6864 169.033 48.921 168.455C49.1552 167.876 49.456 167.397 49.7533 167.035C50.3504 166.306 50.8749 166.03 50.9056 166.076Z" fill="white"/>
</g>
<path d="M128.392 114.589C130.491 112.577 130.562 109.245 128.55 107.146C126.539 105.046 123.206 104.975 121.107 106.987C119.007 108.999 118.937 112.331 120.948 114.431C122.96 116.53 126.293 116.601 128.392 114.589Z" fill="#77A8AF"/>
<g opacity="0.4">
<path d="M126.465 108.776C126.476 108.301 126.869 107.926 127.343 107.938C127.818 107.949 128.193 108.342 128.181 108.816C128.17 109.29 127.777 109.666 127.303 109.654C126.828 109.643 126.453 109.25 126.465 108.776Z" fill="black"/>
</g>
<g opacity="0.4">
<path d="M128.182 110.78C128.188 110.505 128.417 110.286 128.693 110.293C128.969 110.299 129.187 110.528 129.18 110.804C129.174 111.08 128.945 111.298 128.669 111.291C128.394 111.285 128.175 111.056 128.182 110.78Z" fill="black"/>
</g>
<g opacity="0.4">
<path d="M127.512 112.314C127.614 112.317 127.694 112.401 127.692 112.502C127.689 112.604 127.605 112.685 127.503 112.682C127.401 112.68 127.321 112.596 127.323 112.494C127.326 112.392 127.41 112.312 127.512 112.314Z" fill="black"/>
</g>
<path d="M23.241 26.1H25.247V34.005C25.247 34.7417 25.4397 35.3367 25.825 35.79C26.2217 36.232 26.8053 36.453 27.576 36.453C28.3353 36.453 28.9133 36.232 29.31 35.79C29.7067 35.3367 29.905 34.7417 29.905 34.005V26.1H31.911V34.09C31.911 34.7473 31.8033 35.3367 31.588 35.858C31.384 36.368 31.0893 36.8043 30.704 37.167C30.3187 37.5297 29.8597 37.8073 29.327 38C28.7943 38.1927 28.2107 38.289 27.576 38.289C26.9413 38.289 26.3577 38.1927 25.825 38C25.2923 37.8073 24.8277 37.5297 24.431 37.167C24.0457 36.8043 23.751 36.368 23.547 35.858C23.343 35.3367 23.241 34.7473 23.241 34.09V26.1ZM40.6533 26.1H43.1013L39.4973 31.812L43.3563 38H40.9083L38.3583 33.427L35.7233 38H33.2923L37.2363 31.812L33.7172 26.1H36.1483L38.3753 30.129L40.6533 26.1ZM49.9051 26.1H51.9451V38H49.9051V26.1ZM53.7471 38H51.1461V36.113H53.6961C54.2854 36.113 54.8294 36.028 55.3281 35.858C55.8268 35.688 56.2574 35.433 56.6201 35.093C56.9941 34.753 57.2831 34.328 57.4871 33.818C57.7024 33.308 57.8101 32.7187 57.8101 32.05C57.8101 31.3813 57.7024 30.792 57.4871 30.282C57.2831 29.772 56.9941 29.347 56.6201 29.007C56.2574 28.667 55.8268 28.412 55.3281 28.242C54.8294 28.072 54.2854 27.987 53.6961 27.987H51.1461V26.1H53.7471C54.9598 26.1 56.0251 26.3493 56.9431 26.848C57.8611 27.3353 58.5751 28.0267 59.0851 28.922C59.6064 29.806 59.8671 30.8487 59.8671 32.05C59.8671 33.2513 59.6064 34.2997 59.0851 35.195C58.5751 36.079 57.8611 36.7703 56.9431 37.269C56.0251 37.7563 54.9598 38 53.7471 38ZM65.072 38.17C64.2787 38.17 63.576 38 62.964 37.66C62.3634 37.32 61.8987 36.844 61.57 36.232C61.2414 35.62 61.077 34.906 61.077 34.09C61.077 33.2627 61.2414 32.543 61.57 31.931C61.91 31.319 62.386 30.8487 62.998 30.52C63.61 30.18 64.3297 30.01 65.157 30.01C65.9844 30.01 66.687 30.1687 67.265 30.486C67.843 30.8033 68.285 31.2623 68.591 31.863C68.9084 32.4523 69.067 33.1663 69.067 34.005C69.067 34.0957 69.0614 34.192 69.05 34.294C69.05 34.396 69.0444 34.4697 69.033 34.515H62.165V33.257H67.469L66.908 34.039C66.942 33.971 66.976 33.8803 67.01 33.767C67.0554 33.6423 67.078 33.5403 67.078 33.461C67.078 33.0417 66.993 32.679 66.823 32.373C66.6644 32.067 66.4377 31.829 66.143 31.659C65.8597 31.489 65.5254 31.404 65.14 31.404C64.6754 31.404 64.2787 31.506 63.95 31.71C63.6214 31.914 63.372 32.2087 63.202 32.594C63.032 32.9793 62.9414 33.4553 62.93 34.022C62.93 34.5887 63.015 35.0703 63.185 35.467C63.355 35.8523 63.6044 36.147 63.933 36.351C64.273 36.555 64.681 36.657 65.157 36.657C65.6557 36.657 66.092 36.555 66.466 36.351C66.84 36.147 67.1517 35.8353 67.401 35.416L68.982 36.062C68.574 36.7647 68.047 37.2917 67.401 37.643C66.755 37.9943 65.9787 38.17 65.072 38.17ZM71.1765 35.433C71.4258 35.705 71.6752 35.943 71.9245 36.147C72.1852 36.3397 72.4458 36.487 72.7065 36.589C72.9672 36.6797 73.2278 36.725 73.4885 36.725C73.8172 36.725 74.0722 36.6513 74.2535 36.504C74.4462 36.3567 74.5425 36.1527 74.5425 35.892C74.5425 35.6653 74.4688 35.4727 74.3215 35.314C74.1742 35.144 73.9702 35.0023 73.7095 34.889C73.4488 34.7643 73.1428 34.6397 72.7915 34.515C72.4402 34.379 72.0888 34.2203 71.7375 34.039C71.3975 33.8463 71.1142 33.597 70.8875 33.291C70.6722 32.985 70.5645 32.5997 70.5645 32.135C70.5645 31.659 70.6835 31.2623 70.9215 30.945C71.1708 30.6277 71.4995 30.3953 71.9075 30.248C72.3268 30.0893 72.7745 30.01 73.2505 30.01C73.6812 30.01 74.0835 30.0723 74.4575 30.197C74.8428 30.3217 75.1885 30.486 75.4945 30.69C75.8005 30.894 76.0612 31.1263 76.2765 31.387L75.2565 32.475C74.9958 32.169 74.6842 31.9197 74.3215 31.727C73.9588 31.5343 73.5848 31.438 73.1995 31.438C72.9388 31.438 72.7235 31.4947 72.5535 31.608C72.3835 31.7213 72.2985 31.8857 72.2985 32.101C72.2985 32.2823 72.3722 32.4467 72.5195 32.594C72.6782 32.73 72.8822 32.8547 73.1315 32.968C73.3922 33.0813 73.6812 33.2003 73.9985 33.325C74.4292 33.495 74.8258 33.682 75.1885 33.886C75.5512 34.09 75.8402 34.3393 76.0555 34.634C76.2822 34.9287 76.3955 35.314 76.3955 35.79C76.3955 36.5267 76.1405 37.1217 75.6305 37.575C75.1318 38.017 74.4518 38.238 73.5905 38.238C73.0578 38.238 72.5648 38.1587 72.1115 38C71.6695 37.83 71.2785 37.6147 70.9385 37.354C70.6098 37.082 70.3322 36.7987 70.1055 36.504L71.1765 35.433ZM77.9566 27.069C77.9566 26.7517 78.0699 26.4853 78.2966 26.27C78.5346 26.0547 78.8066 25.947 79.1126 25.947C79.4412 25.947 79.7132 26.0547 79.9286 26.27C80.1552 26.4853 80.2686 26.7517 80.2686 27.069C80.2686 27.375 80.1552 27.6413 79.9286 27.868C79.7132 28.0833 79.4412 28.191 79.1126 28.191C78.8066 28.191 78.5346 28.0833 78.2966 27.868C78.0699 27.6413 77.9566 27.375 77.9566 27.069ZM78.2116 30.18H80.0136V38H78.2116V30.18ZM82.0982 38.527H83.9172C83.9285 38.8783 84.0249 39.1957 84.2062 39.479C84.3989 39.7623 84.6595 39.9833 84.9882 40.142C85.3169 40.3007 85.6965 40.38 86.1272 40.38C86.5125 40.38 86.8809 40.2893 87.2322 40.108C87.5835 39.9267 87.8669 39.649 88.0822 39.275C88.3089 38.901 88.4222 38.4193 88.4222 37.83V30.18H90.2242V37.83C90.2242 38.7707 90.0315 39.547 89.6462 40.159C89.2722 40.771 88.7792 41.2243 88.1672 41.519C87.5552 41.825 86.8922 41.978 86.1782 41.978C85.3282 41.978 84.6029 41.8307 84.0022 41.536C83.4015 41.2527 82.9369 40.8503 82.6082 40.329C82.2909 39.8077 82.1209 39.207 82.0982 38.527ZM81.9452 34.056C81.9452 33.1833 82.1209 32.4523 82.4722 31.863C82.8235 31.2623 83.2882 30.8033 83.8662 30.486C84.4555 30.1687 85.0845 30.01 85.7532 30.01C86.4105 30.01 86.9829 30.1743 87.4702 30.503C87.9689 30.8203 88.3599 31.2793 88.6432 31.88C88.9379 32.4807 89.0852 33.206 89.0852 34.056C89.0852 34.8947 88.9379 35.6143 88.6432 36.215C88.3599 36.8157 87.9689 37.2803 87.4702 37.609C86.9829 37.9263 86.4105 38.085 85.7532 38.085C85.0845 38.085 84.4555 37.9263 83.8662 37.609C83.2882 37.2917 82.8235 36.8327 82.4722 36.232C82.1209 35.6313 81.9452 34.906 81.9452 34.056ZM83.8492 34.056C83.8492 34.5773 83.9569 35.0193 84.1722 35.382C84.3875 35.7447 84.6709 36.0223 85.0222 36.215C85.3849 36.3963 85.7759 36.487 86.1952 36.487C86.5465 36.487 86.8922 36.3963 87.2322 36.215C87.5835 36.0337 87.8669 35.7617 88.0822 35.399C88.3089 35.025 88.4222 34.5773 88.4222 34.056C88.4222 33.648 88.3542 33.2967 88.2182 33.002C88.0935 32.696 87.9235 32.441 87.7082 32.237C87.4929 32.0217 87.2492 31.863 86.9772 31.761C86.7165 31.659 86.4559 31.608 86.1952 31.608C85.7759 31.608 85.3849 31.7043 85.0222 31.897C84.6709 32.0783 84.3875 32.3503 84.1722 32.713C83.9569 33.0757 83.8492 33.5233 83.8492 34.056ZM97.5331 33.24C97.5331 32.662 97.4141 32.2257 97.1761 31.931C96.9381 31.6363 96.5698 31.489 96.0711 31.489C95.7311 31.489 95.4308 31.5627 95.1701 31.71C94.9095 31.846 94.7055 32.05 94.5581 32.322C94.4108 32.5827 94.3371 32.8887 94.3371 33.24V38H92.5011V30.18H94.3371V31.387C94.5865 30.9223 94.9038 30.5767 95.2891 30.35C95.6858 30.1233 96.1561 30.01 96.7001 30.01C97.5841 30.01 98.2585 30.282 98.7231 30.826C99.1878 31.3587 99.4201 32.0953 99.4201 33.036V38H97.5331V33.24ZM105.165 38.17C104.371 38.17 103.669 38 103.057 37.66C102.456 37.32 101.991 36.844 101.663 36.232C101.334 35.62 101.17 34.906 101.17 34.09C101.17 33.2627 101.334 32.543 101.663 31.931C102.003 31.319 102.479 30.8487 103.091 30.52C103.703 30.18 104.422 30.01 105.25 30.01C106.077 30.01 106.78 30.1687 107.358 30.486C107.936 30.8033 108.378 31.2623 108.684 31.863C109.001 32.4523 109.16 33.1663 109.16 34.005C109.16 34.0957 109.154 34.192 109.143 34.294C109.143 34.396 109.137 34.4697 109.126 34.515H102.258V33.257H107.562L107.001 34.039C107.035 33.971 107.069 33.8803 107.103 33.767C107.148 33.6423 107.171 33.5403 107.171 33.461C107.171 33.0417 107.086 32.679 106.916 32.373C106.757 32.067 106.53 31.829 106.236 31.659C105.952 31.489 105.618 31.404 105.233 31.404C104.768 31.404 104.371 31.506 104.043 31.71C103.714 31.914 103.465 32.2087 103.295 32.594C103.125 32.9793 103.034 33.4553 103.023 34.022C103.023 34.5887 103.108 35.0703 103.278 35.467C103.448 35.8523 103.697 36.147 104.026 36.351C104.366 36.555 104.774 36.657 105.25 36.657C105.748 36.657 106.185 36.555 106.559 36.351C106.933 36.147 107.244 35.8353 107.494 35.416L109.075 36.062C108.667 36.7647 108.14 37.2917 107.494 37.643C106.848 37.9943 106.071 38.17 105.165 38.17ZM112.731 30.18V38H110.912V30.18H112.731ZM115.06 32.135C114.89 31.999 114.732 31.897 114.584 31.829C114.437 31.761 114.25 31.727 114.023 31.727C113.717 31.727 113.468 31.8063 113.275 31.965C113.083 32.1237 112.941 32.3447 112.85 32.628C112.771 32.9 112.731 33.223 112.731 33.597L112.119 33.24C112.119 32.6167 112.233 32.067 112.459 31.591C112.697 31.1037 112.998 30.7183 113.36 30.435C113.734 30.1517 114.12 30.01 114.516 30.01C114.8 30.01 115.066 30.0553 115.315 30.146C115.565 30.2253 115.774 30.3727 115.944 30.588L115.06 32.135ZM121.655 30.18H126.143V31.795H121.655V30.18ZM125.939 26.712C125.826 26.5307 125.695 26.4117 125.548 26.355C125.412 26.2983 125.27 26.27 125.123 26.27C124.953 26.27 124.806 26.3153 124.681 26.406C124.568 26.4967 124.477 26.644 124.409 26.848C124.341 27.052 124.307 27.3183 124.307 27.647V38H122.505V27.29C122.505 26.678 122.601 26.1737 122.794 25.777C122.998 25.369 123.287 25.063 123.661 24.859C124.035 24.6437 124.494 24.536 125.038 24.536C125.344 24.536 125.61 24.5757 125.837 24.655C126.064 24.7343 126.256 24.8307 126.415 24.944C126.585 25.0573 126.715 25.1707 126.806 25.284L125.939 26.712ZM129.366 30.18V38H127.547V30.18H129.366ZM131.695 32.135C131.525 31.999 131.366 31.897 131.219 31.829C131.072 31.761 130.885 31.727 130.658 31.727C130.352 31.727 130.103 31.8063 129.91 31.965C129.717 32.1237 129.576 32.3447 129.485 32.628C129.406 32.9 129.366 33.223 129.366 33.597L128.754 33.24C128.754 32.6167 128.867 32.067 129.094 31.591C129.332 31.1037 129.632 30.7183 129.995 30.435C130.369 30.1517 130.754 30.01 131.151 30.01C131.434 30.01 131.701 30.0553 131.95 30.146C132.199 30.2253 132.409 30.3727 132.579 30.588L131.695 32.135ZM132.995 34.09C132.995 33.2853 133.176 32.577 133.539 31.965C133.913 31.353 134.417 30.877 135.052 30.537C135.687 30.1857 136.406 30.01 137.211 30.01C138.016 30.01 138.73 30.1857 139.353 30.537C139.988 30.877 140.492 31.353 140.866 31.965C141.24 32.577 141.427 33.2853 141.427 34.09C141.427 34.8833 141.24 35.5917 140.866 36.215C140.492 36.827 139.988 37.3087 139.353 37.66C138.73 38 138.016 38.17 137.211 38.17C136.406 38.17 135.687 38 135.052 37.66C134.417 37.3087 133.913 36.827 133.539 36.215C133.176 35.5917 132.995 34.8833 132.995 34.09ZM134.882 34.09C134.882 34.5773 134.984 35.008 135.188 35.382C135.392 35.7447 135.67 36.0337 136.021 36.249C136.372 36.453 136.769 36.555 137.211 36.555C137.642 36.555 138.033 36.453 138.384 36.249C138.747 36.0337 139.03 35.7447 139.234 35.382C139.438 35.008 139.54 34.5773 139.54 34.09C139.54 33.6027 139.438 33.172 139.234 32.798C139.03 32.424 138.747 32.135 138.384 31.931C138.033 31.727 137.642 31.625 137.211 31.625C136.769 31.625 136.372 31.727 136.021 31.931C135.67 32.135 135.392 32.424 135.188 32.798C134.984 33.172 134.882 33.6027 134.882 34.09ZM154.355 33.036V38H152.519V33.24C152.519 32.6507 152.411 32.2143 152.196 31.931C151.992 31.6363 151.663 31.489 151.21 31.489C150.904 31.489 150.632 31.557 150.394 31.693C150.167 31.829 149.986 32.0273 149.85 32.288C149.725 32.5487 149.663 32.866 149.663 33.24V38H147.827V33.24C147.827 32.6507 147.719 32.2143 147.504 31.931C147.3 31.6363 146.971 31.489 146.518 31.489C146.201 31.489 145.923 31.557 145.685 31.693C145.458 31.829 145.283 32.0273 145.158 32.288C145.033 32.5487 144.971 32.866 144.971 33.24V38H143.169V30.18H144.971V31.319C145.198 30.8883 145.492 30.5653 145.855 30.35C146.229 30.1233 146.665 30.01 147.164 30.01C147.742 30.01 148.218 30.129 148.592 30.367C148.977 30.605 149.255 30.9507 149.425 31.404C149.697 30.9507 150.037 30.605 150.445 30.367C150.864 30.129 151.34 30.01 151.873 30.01C152.428 30.01 152.887 30.129 153.25 30.367C153.624 30.5937 153.902 30.9337 154.083 31.387C154.264 31.8403 154.355 32.39 154.355 33.036ZM24.108 59.175C24.3687 59.6283 24.6463 60.0307 24.941 60.382C25.247 60.722 25.5813 60.9883 25.944 61.181C26.3067 61.3623 26.7147 61.453 27.168 61.453C27.712 61.453 28.154 61.3057 28.494 61.011C28.834 60.7163 29.004 60.3367 29.004 59.872C29.004 59.43 28.8963 59.0787 28.681 58.818C28.4657 58.546 28.1653 58.3193 27.78 58.138C27.406 57.9453 26.9697 57.7583 26.471 57.577C26.1763 57.475 25.8477 57.339 25.485 57.169C25.1223 56.9877 24.7767 56.7667 24.448 56.506C24.1193 56.234 23.8473 55.9053 23.632 55.52C23.4167 55.1233 23.309 54.6473 23.309 54.092C23.309 53.4573 23.4733 52.902 23.802 52.426C24.1307 51.9387 24.5727 51.5647 25.128 51.304C25.6947 51.032 26.335 50.896 27.049 50.896C27.7517 50.896 28.3637 51.0207 28.885 51.27C29.4063 51.5193 29.8427 51.8367 30.194 52.222C30.5567 52.6073 30.84 53.0097 31.044 53.429L29.412 54.347C29.2647 54.0523 29.0777 53.7803 28.851 53.531C28.6243 53.2703 28.358 53.0663 28.052 52.919C27.7573 52.7603 27.4117 52.681 27.015 52.681C26.4597 52.681 26.0517 52.8113 25.791 53.072C25.5303 53.3213 25.4 53.616 25.4 53.956C25.4 54.262 25.4907 54.5397 25.672 54.789C25.8647 55.027 26.1593 55.2537 26.556 55.469C26.9527 55.6843 27.4683 55.9053 28.103 56.132C28.4543 56.2567 28.8057 56.4153 29.157 56.608C29.5197 56.8007 29.8483 57.0443 30.143 57.339C30.4377 57.6223 30.67 57.9567 30.84 58.342C31.0213 58.7273 31.112 59.1807 31.112 59.702C31.112 60.2573 31.0043 60.756 30.789 61.198C30.5737 61.64 30.279 62.014 29.905 62.32C29.531 62.6147 29.106 62.8413 28.63 63C28.1653 63.17 27.678 63.255 27.168 63.255C26.4653 63.255 25.8137 63.119 25.213 62.847C24.6237 62.5637 24.108 62.1897 23.666 61.725C23.224 61.2603 22.8727 60.756 22.612 60.212L24.108 59.175ZM34.2417 59.09C34.2417 59.5887 34.3494 60.025 34.5647 60.399C34.7801 60.7617 35.0691 61.0507 35.4317 61.266C35.8057 61.4813 36.2194 61.589 36.6727 61.589C37.0467 61.589 37.4037 61.5323 37.7437 61.419C38.0837 61.3057 38.3841 61.147 38.6447 60.943C38.9054 60.739 39.0981 60.5123 39.2227 60.263V62.286C38.9507 62.558 38.5824 62.7733 38.1177 62.932C37.6531 63.0907 37.1431 63.17 36.5877 63.17C35.7831 63.17 35.0577 63 34.4117 62.66C33.7771 62.3087 33.2727 61.827 32.8987 61.215C32.5361 60.5917 32.3547 59.8833 32.3547 59.09C32.3547 58.2853 32.5361 57.577 32.8987 56.965C33.2727 56.353 33.7771 55.877 34.4117 55.537C35.0577 55.1857 35.7831 55.01 36.5877 55.01C37.1431 55.01 37.6531 55.0893 38.1177 55.248C38.5824 55.4067 38.9507 55.622 39.2227 55.894V57.917C39.0981 57.6563 38.8997 57.4297 38.6277 57.237C38.3671 57.033 38.0667 56.8743 37.7267 56.761C37.3867 56.6477 37.0354 56.591 36.6727 56.591C36.2194 56.591 35.8057 56.6987 35.4317 56.914C35.0691 57.1293 34.7801 57.424 34.5647 57.798C34.3494 58.172 34.2417 58.6027 34.2417 59.09ZM43.0711 55.18V63H41.2521V55.18H43.0711ZM45.4001 57.135C45.2301 56.999 45.0714 56.897 44.9241 56.829C44.7768 56.761 44.5898 56.727 44.3631 56.727C44.0571 56.727 43.8078 56.8063 43.6151 56.965C43.4224 57.1237 43.2808 57.3447 43.1901 57.628C43.1108 57.9 43.0711 58.223 43.0711 58.597L42.4591 58.24C42.4591 57.6167 42.5724 57.067 42.7991 56.591C43.0371 56.1037 43.3374 55.7183 43.7001 55.435C44.0741 55.1517 44.4594 55.01 44.8561 55.01C45.1394 55.01 45.4058 55.0553 45.6551 55.146C45.9044 55.2253 46.1141 55.3727 46.2841 55.588L45.4001 57.135ZM48.7001 60.569C48.7001 60.8297 48.7624 61.0563 48.8871 61.249C49.0118 61.4303 49.1818 61.5663 49.3971 61.657C49.6238 61.7477 49.8788 61.793 50.1621 61.793C50.5248 61.793 50.8534 61.7193 51.1481 61.572C51.4541 61.4247 51.6978 61.2093 51.8791 60.926C52.0718 60.6313 52.1681 60.2913 52.1681 59.906L52.4401 60.926C52.4401 61.4247 52.2928 61.844 51.9981 62.184C51.7148 62.5127 51.3521 62.762 50.9101 62.932C50.4794 63.0907 50.0374 63.17 49.5841 63.17C49.0968 63.17 48.6434 63.0737 48.2241 62.881C47.8048 62.6883 47.4704 62.405 47.2211 62.031C46.9718 61.657 46.8471 61.2037 46.8471 60.671C46.8471 59.9117 47.1134 59.311 47.6461 58.869C48.1788 58.4157 48.9324 58.189 49.9071 58.189C50.4284 58.189 50.8761 58.2457 51.2501 58.359C51.6354 58.4723 51.9528 58.6083 52.2021 58.767C52.4514 58.9143 52.6271 59.0503 52.7291 59.175V60.11C52.3778 59.8607 52.0038 59.6793 51.6071 59.566C51.2104 59.4527 50.7911 59.396 50.3491 59.396C49.9638 59.396 49.6521 59.447 49.4141 59.549C49.1761 59.6397 48.9948 59.77 48.8701 59.94C48.7568 60.11 48.7001 60.3197 48.7001 60.569ZM48.1221 57.22L47.3741 55.928C47.7254 55.7127 48.1788 55.503 48.7341 55.299C49.3008 55.095 49.9468 54.993 50.6721 54.993C51.3181 54.993 51.8848 55.0893 52.3721 55.282C52.8708 55.4747 53.2618 55.7523 53.5451 56.115C53.8284 56.4663 53.9701 56.9027 53.9701 57.424V63H52.1681V57.781C52.1681 57.5317 52.1228 57.3277 52.0321 57.169C51.9528 57.0103 51.8394 56.88 51.6921 56.778C51.5448 56.676 51.3691 56.6023 51.1651 56.557C50.9611 56.5117 50.7401 56.489 50.5021 56.489C50.1394 56.489 49.7938 56.5343 49.4651 56.625C49.1478 56.7043 48.8701 56.8063 48.6321 56.931C48.4054 57.0443 48.2354 57.1407 48.1221 57.22ZM55.0225 55.18H59.4595V56.795H55.0225V55.18ZM56.3315 52.46H58.1505V63H56.3315V52.46ZM61.9497 59.09C61.9497 59.5887 62.0574 60.025 62.2727 60.399C62.4881 60.7617 62.7771 61.0507 63.1397 61.266C63.5137 61.4813 63.9274 61.589 64.3807 61.589C64.7547 61.589 65.1117 61.5323 65.4517 61.419C65.7917 61.3057 66.0921 61.147 66.3527 60.943C66.6134 60.739 66.8061 60.5123 66.9307 60.263V62.286C66.6587 62.558 66.2904 62.7733 65.8257 62.932C65.3611 63.0907 64.8511 63.17 64.2957 63.17C63.4911 63.17 62.7657 63 62.1197 62.66C61.4851 62.3087 60.9807 61.827 60.6067 61.215C60.2441 60.5917 60.0627 59.8833 60.0627 59.09C60.0627 58.2853 60.2441 57.577 60.6067 56.965C60.9807 56.353 61.4851 55.877 62.1197 55.537C62.7657 55.1857 63.4911 55.01 64.2957 55.01C64.8511 55.01 65.3611 55.0893 65.8257 55.248C66.2904 55.4067 66.6587 55.622 66.9307 55.894V57.917C66.8061 57.6563 66.6077 57.4297 66.3357 57.237C66.0751 57.033 65.7747 56.8743 65.4347 56.761C65.0947 56.6477 64.7434 56.591 64.3807 56.591C63.9274 56.591 63.5137 56.6987 63.1397 56.914C62.7771 57.1293 62.4881 57.424 62.2727 57.798C62.0574 58.172 61.9497 58.6027 61.9497 59.09ZM70.7961 49.74V63H68.9601V49.74H70.7961ZM73.9921 58.24C73.9921 57.662 73.8731 57.2257 73.6351 56.931C73.4084 56.6363 73.0401 56.489 72.5301 56.489C72.1901 56.489 71.8898 56.5627 71.6291 56.71C71.3684 56.8573 71.1644 57.0613 71.0171 57.322C70.8698 57.5827 70.7961 57.8887 70.7961 58.24H70.3541C70.3541 57.6167 70.4674 57.0613 70.6941 56.574C70.9208 56.0867 71.2381 55.6957 71.6461 55.401C72.0654 55.1063 72.5698 54.959 73.1591 54.959C73.7371 54.959 74.2244 55.0723 74.6211 55.299C75.0291 55.5257 75.3351 55.8657 75.5391 56.319C75.7431 56.761 75.8451 57.3163 75.8451 57.985V63H73.9921V58.24ZM78.429 62.133C78.429 61.8043 78.5423 61.5267 78.769 61.3C79.007 61.062 79.2903 60.943 79.619 60.943C79.9703 60.943 80.2593 61.062 80.486 61.3C80.7126 61.5267 80.826 61.8043 80.826 62.133C80.826 62.4503 80.7126 62.728 80.486 62.966C80.2593 63.204 79.9703 63.323 79.619 63.323C79.2903 63.323 79.007 63.204 78.769 62.966C78.5423 62.728 78.429 62.4503 78.429 62.133Z" fill="white"/>
<defs>
<linearGradient id="paint0_linear_35651_6048" x1="95" y1="0" x2="95" y2="242" gradientUnits="userSpaceOnUse">
<stop stop-color="#C50462"/>
<stop offset="1" stop-color="#500370"/>
</linearGradient>
</defs>
</svg>
