<svg width="130" height="242" viewBox="0 0 130 242" fill="none" xmlns="http://www.w3.org/2000/svg">
<rect width="190" height="242" rx="14" fill="url(#paint0_linear_35651_6599)"/>
<path d="M23.326 26.1H25.366V38H23.326V26.1ZM27.168 38H24.567V36.113H27.117C27.7063 36.113 28.2503 36.028 28.749 35.858C29.2477 35.688 29.6783 35.433 30.041 35.093C30.415 34.753 30.704 34.328 30.908 33.818C31.1233 33.308 31.231 32.7187 31.231 32.05C31.231 31.3813 31.1233 30.792 30.908 30.282C30.704 29.772 30.415 29.347 30.041 29.007C29.6783 28.667 29.2477 28.412 28.749 28.242C28.2503 28.072 27.7063 27.987 27.117 27.987H24.567V26.1H27.168C28.3807 26.1 29.446 26.3493 30.364 26.848C31.282 27.3353 31.996 28.0267 32.506 28.922C33.0273 29.806 33.288 30.8487 33.288 32.05C33.288 33.2513 33.0273 34.2997 32.506 35.195C31.996 36.079 31.282 36.7703 30.364 37.269C29.446 37.7563 28.3807 38 27.168 38ZM38.4929 38.17C37.6996 38.17 36.9969 38 36.3849 37.66C35.7843 37.32 35.3196 36.844 34.9909 36.232C34.6623 35.62 34.4979 34.906 34.4979 34.09C34.4979 33.2627 34.6623 32.543 34.9909 31.931C35.3309 31.319 35.8069 30.8487 36.4189 30.52C37.0309 30.18 37.7506 30.01 38.5779 30.01C39.4053 30.01 40.1079 30.1687 40.6859 30.486C41.2639 30.8033 41.7059 31.2623 42.0119 31.863C42.3293 32.4523 42.4879 33.1663 42.4879 34.005C42.4879 34.0957 42.4823 34.192 42.4709 34.294C42.4709 34.396 42.4653 34.4697 42.4539 34.515H35.5859V33.257H40.8899L40.3289 34.039C40.3629 33.971 40.3969 33.8803 40.4309 33.767C40.4763 33.6423 40.4989 33.5403 40.4989 33.461C40.4989 33.0417 40.4139 32.679 40.2439 32.373C40.0853 32.067 39.8586 31.829 39.5639 31.659C39.2806 31.489 38.9463 31.404 38.5609 31.404C38.0963 31.404 37.6996 31.506 37.3709 31.71C37.0423 31.914 36.7929 32.2087 36.6229 32.594C36.4529 32.9793 36.3623 33.4553 36.3509 34.022C36.3509 34.5887 36.4359 35.0703 36.6059 35.467C36.7759 35.8523 37.0253 36.147 37.3539 36.351C37.6939 36.555 38.1019 36.657 38.5779 36.657C39.0766 36.657 39.5129 36.555 39.8869 36.351C40.2609 36.147 40.5726 35.8353 40.8219 35.416L42.4029 36.062C41.9949 36.7647 41.4679 37.2917 40.8219 37.643C40.1759 37.9943 39.3996 38.17 38.4929 38.17ZM44.5974 35.433C44.8467 35.705 45.096 35.943 45.3454 36.147C45.606 36.3397 45.8667 36.487 46.1274 36.589C46.388 36.6797 46.6487 36.725 46.9094 36.725C47.238 36.725 47.493 36.6513 47.6744 36.504C47.867 36.3567 47.9634 36.1527 47.9634 35.892C47.9634 35.6653 47.8897 35.4727 47.7424 35.314C47.595 35.144 47.391 35.0023 47.1304 34.889C46.8697 34.7643 46.5637 34.6397 46.2124 34.515C45.861 34.379 45.5097 34.2203 45.1584 34.039C44.8184 33.8463 44.535 33.597 44.3084 33.291C44.093 32.985 43.9854 32.5997 43.9854 32.135C43.9854 31.659 44.1044 31.2623 44.3424 30.945C44.5917 30.6277 44.9204 30.3953 45.3284 30.248C45.7477 30.0893 46.1954 30.01 46.6714 30.01C47.102 30.01 47.5044 30.0723 47.8784 30.197C48.2637 30.3217 48.6094 30.486 48.9154 30.69C49.2214 30.894 49.482 31.1263 49.6974 31.387L48.6774 32.475C48.4167 32.169 48.105 31.9197 47.7424 31.727C47.3797 31.5343 47.0057 31.438 46.6204 31.438C46.3597 31.438 46.1444 31.4947 45.9744 31.608C45.8044 31.7213 45.7194 31.8857 45.7194 32.101C45.7194 32.2823 45.793 32.4467 45.9404 32.594C46.099 32.73 46.303 32.8547 46.5524 32.968C46.813 33.0813 47.102 33.2003 47.4194 33.325C47.85 33.495 48.2467 33.682 48.6094 33.886C48.972 34.09 49.261 34.3393 49.4764 34.634C49.703 34.9287 49.8164 35.314 49.8164 35.79C49.8164 36.5267 49.5614 37.1217 49.0514 37.575C48.5527 38.017 47.8727 38.238 47.0114 38.238C46.4787 38.238 45.9857 38.1587 45.5324 38C45.0904 37.83 44.6994 37.6147 44.3594 37.354C44.0307 37.082 43.753 36.7987 43.5264 36.504L44.5974 35.433ZM51.3775 27.069C51.3775 26.7517 51.4908 26.4853 51.7175 26.27C51.9555 26.0547 52.2275 25.947 52.5335 25.947C52.8621 25.947 53.1341 26.0547 53.3495 26.27C53.5761 26.4853 53.6895 26.7517 53.6895 27.069C53.6895 27.375 53.5761 27.6413 53.3495 27.868C53.1341 28.0833 52.8621 28.191 52.5335 28.191C52.2275 28.191 51.9555 28.0833 51.7175 27.868C51.4908 27.6413 51.3775 27.375 51.3775 27.069ZM51.6325 30.18H53.4345V38H51.6325V30.18ZM55.5191 38.527H57.3381C57.3494 38.8783 57.4458 39.1957 57.6271 39.479C57.8198 39.7623 58.0804 39.9833 58.4091 40.142C58.7378 40.3007 59.1174 40.38 59.5481 40.38C59.9334 40.38 60.3018 40.2893 60.6531 40.108C61.0044 39.9267 61.2878 39.649 61.5031 39.275C61.7298 38.901 61.8431 38.4193 61.8431 37.83V30.18H63.6451V37.83C63.6451 38.7707 63.4524 39.547 63.0671 40.159C62.6931 40.771 62.2001 41.2243 61.5881 41.519C60.9761 41.825 60.3131 41.978 59.5991 41.978C58.7491 41.978 58.0238 41.8307 57.4231 41.536C56.8224 41.2527 56.3578 40.8503 56.0291 40.329C55.7118 39.8077 55.5418 39.207 55.5191 38.527ZM55.3661 34.056C55.3661 33.1833 55.5418 32.4523 55.8931 31.863C56.2444 31.2623 56.7091 30.8033 57.2871 30.486C57.8764 30.1687 58.5054 30.01 59.1741 30.01C59.8314 30.01 60.4038 30.1743 60.8911 30.503C61.3898 30.8203 61.7808 31.2793 62.0641 31.88C62.3588 32.4807 62.5061 33.206 62.5061 34.056C62.5061 34.8947 62.3588 35.6143 62.0641 36.215C61.7808 36.8157 61.3898 37.2803 60.8911 37.609C60.4038 37.9263 59.8314 38.085 59.1741 38.085C58.5054 38.085 57.8764 37.9263 57.2871 37.609C56.7091 37.2917 56.2444 36.8327 55.8931 36.232C55.5418 35.6313 55.3661 34.906 55.3661 34.056ZM57.2701 34.056C57.2701 34.5773 57.3778 35.0193 57.5931 35.382C57.8084 35.7447 58.0918 36.0223 58.4431 36.215C58.8058 36.3963 59.1968 36.487 59.6161 36.487C59.9674 36.487 60.3131 36.3963 60.6531 36.215C61.0044 36.0337 61.2878 35.7617 61.5031 35.399C61.7298 35.025 61.8431 34.5773 61.8431 34.056C61.8431 33.648 61.7751 33.2967 61.6391 33.002C61.5144 32.696 61.3444 32.441 61.1291 32.237C60.9138 32.0217 60.6701 31.863 60.3981 31.761C60.1374 31.659 59.8768 31.608 59.6161 31.608C59.1968 31.608 58.8058 31.7043 58.4431 31.897C58.0918 32.0783 57.8084 32.3503 57.5931 32.713C57.3778 33.0757 57.2701 33.5233 57.2701 34.056ZM70.954 33.24C70.954 32.662 70.835 32.2257 70.597 31.931C70.359 31.6363 69.9907 31.489 69.492 31.489C69.152 31.489 68.8517 31.5627 68.591 31.71C68.3304 31.846 68.1264 32.05 67.979 32.322C67.8317 32.5827 67.758 32.8887 67.758 33.24V38H65.922V30.18H67.758V31.387C68.0074 30.9223 68.3247 30.5767 68.71 30.35C69.1067 30.1233 69.577 30.01 70.121 30.01C71.005 30.01 71.6794 30.282 72.144 30.826C72.6087 31.3587 72.841 32.0953 72.841 33.036V38H70.954V33.24ZM79.2454 27.953V26.1H87.5414V27.953H84.3964V38H82.3734V27.953H79.2454ZM90.6848 24.74V38H88.8488V24.74H90.6848ZM93.8808 33.24C93.8808 32.662 93.7618 32.2257 93.5238 31.931C93.2971 31.6363 92.9288 31.489 92.4188 31.489C92.0788 31.489 91.7784 31.5627 91.5178 31.71C91.2571 31.8573 91.0531 32.0613 90.9058 32.322C90.7584 32.5827 90.6848 32.8887 90.6848 33.24H90.2428C90.2428 32.6167 90.3561 32.0613 90.5828 31.574C90.8094 31.0867 91.1268 30.6957 91.5348 30.401C91.9541 30.1063 92.4584 29.959 93.0478 29.959C93.6258 29.959 94.1131 30.0723 94.5098 30.299C94.9178 30.5257 95.2238 30.8657 95.4278 31.319C95.6318 31.761 95.7338 32.3163 95.7338 32.985V38H93.8808V33.24ZM97.9946 27.069C97.9946 26.7517 98.108 26.4853 98.3346 26.27C98.5726 26.0547 98.8446 25.947 99.1506 25.947C99.4793 25.947 99.7513 26.0547 99.9666 26.27C100.193 26.4853 100.307 26.7517 100.307 27.069C100.307 27.375 100.193 27.6413 99.9666 27.868C99.7513 28.0833 99.4793 28.191 99.1506 28.191C98.8446 28.191 98.5726 28.0833 98.3346 27.868C98.108 27.6413 97.9946 27.375 97.9946 27.069ZM98.2496 30.18H100.052V38H98.2496V30.18ZM107.61 33.24C107.61 32.662 107.491 32.2257 107.253 31.931C107.015 31.6363 106.647 31.489 106.148 31.489C105.808 31.489 105.508 31.5627 105.247 31.71C104.987 31.846 104.783 32.05 104.635 32.322C104.488 32.5827 104.414 32.8887 104.414 33.24V38H102.578V30.18H104.414V31.387C104.664 30.9223 104.981 30.5767 105.366 30.35C105.763 30.1233 106.233 30.01 106.777 30.01C107.661 30.01 108.336 30.282 108.8 30.826C109.265 31.3587 109.497 32.0953 109.497 33.036V38H107.61V33.24ZM111.774 24.74H113.576V38H111.774V24.74ZM116.449 30.18H118.693L115.327 33.41L119.033 38H116.806L113.066 33.41L116.449 30.18ZM120.191 27.069C120.191 26.7517 120.304 26.4853 120.531 26.27C120.769 26.0547 121.041 25.947 121.347 25.947C121.676 25.947 121.948 26.0547 122.163 26.27C122.39 26.4853 122.503 26.7517 122.503 27.069C122.503 27.375 122.39 27.6413 122.163 27.868C121.948 28.0833 121.676 28.191 121.347 28.191C121.041 28.191 120.769 28.0833 120.531 27.868C120.304 27.6413 120.191 27.375 120.191 27.069ZM120.446 30.18H122.248V38H120.446V30.18ZM129.807 33.24C129.807 32.662 129.688 32.2257 129.45 31.931C129.212 31.6363 128.843 31.489 128.345 31.489C128.005 31.489 127.704 31.5627 127.444 31.71C127.183 31.846 126.979 32.05 126.832 32.322C126.684 32.5827 126.611 32.8887 126.611 33.24V38H124.775V30.18H126.611V31.387C126.86 30.9223 127.177 30.5767 127.563 30.35C127.959 30.1233 128.43 30.01 128.974 30.01C129.858 30.01 130.532 30.282 130.997 30.826C131.461 31.3587 131.694 32.0953 131.694 33.036V38H129.807V33.24ZM133.596 38.527H135.415C135.427 38.8783 135.523 39.1957 135.704 39.479C135.897 39.7623 136.158 39.9833 136.486 40.142C136.815 40.3007 137.195 40.38 137.625 40.38C138.011 40.38 138.379 40.2893 138.73 40.108C139.082 39.9267 139.365 39.649 139.58 39.275C139.807 38.901 139.92 38.4193 139.92 37.83V30.18H141.722V37.83C141.722 38.7707 141.53 39.547 141.144 40.159C140.77 40.771 140.277 41.2243 139.665 41.519C139.053 41.825 138.39 41.978 137.676 41.978C136.826 41.978 136.101 41.8307 135.5 41.536C134.9 41.2527 134.435 40.8503 134.106 40.329C133.789 39.8077 133.619 39.207 133.596 38.527ZM133.443 34.056C133.443 33.1833 133.619 32.4523 133.97 31.863C134.322 31.2623 134.786 30.8033 135.364 30.486C135.954 30.1687 136.583 30.01 137.251 30.01C137.909 30.01 138.481 30.1743 138.968 30.503C139.467 30.8203 139.858 31.2793 140.141 31.88C140.436 32.4807 140.583 33.206 140.583 34.056C140.583 34.8947 140.436 35.6143 140.141 36.215C139.858 36.8157 139.467 37.2803 138.968 37.609C138.481 37.9263 137.909 38.085 137.251 38.085C136.583 38.085 135.954 37.9263 135.364 37.609C134.786 37.2917 134.322 36.8327 133.97 36.232C133.619 35.6313 133.443 34.906 133.443 34.056ZM135.347 34.056C135.347 34.5773 135.455 35.0193 135.67 35.382C135.886 35.7447 136.169 36.0223 136.52 36.215C136.883 36.3963 137.274 36.487 137.693 36.487C138.045 36.487 138.39 36.3963 138.73 36.215C139.082 36.0337 139.365 35.7617 139.58 35.399C139.807 35.025 139.92 34.5773 139.92 34.056C139.92 33.648 139.852 33.2967 139.716 33.002C139.592 32.696 139.422 32.441 139.206 32.237C138.991 32.0217 138.747 31.863 138.475 31.761C138.215 31.659 137.954 31.608 137.693 31.608C137.274 31.608 136.883 31.7043 136.52 31.897C136.169 32.0783 135.886 32.3503 135.67 32.713C135.455 33.0757 135.347 33.5233 135.347 34.056ZM22.136 52.953V51.1H30.432V52.953H27.287V63H25.264V52.953H22.136ZM33.5754 49.74V63H31.7394V49.74H33.5754ZM36.7714 58.24C36.7714 57.662 36.6524 57.2257 36.4144 56.931C36.1877 56.6363 35.8194 56.489 35.3094 56.489C34.9694 56.489 34.6691 56.5627 34.4084 56.71C34.1477 56.8573 33.9437 57.0613 33.7964 57.322C33.6491 57.5827 33.5754 57.8887 33.5754 58.24H33.1334C33.1334 57.6167 33.2467 57.0613 33.4734 56.574C33.7001 56.0867 34.0174 55.6957 34.4254 55.401C34.8447 55.1063 35.3491 54.959 35.9384 54.959C36.5164 54.959 37.0037 55.0723 37.4004 55.299C37.8084 55.5257 38.1144 55.8657 38.3184 56.319C38.5224 56.761 38.6244 57.3163 38.6244 57.985V63H36.7714V58.24ZM44.3533 63.17C43.5599 63.17 42.8573 63 42.2453 62.66C41.6446 62.32 41.1799 61.844 40.8513 61.232C40.5226 60.62 40.3583 59.906 40.3583 59.09C40.3583 58.2627 40.5226 57.543 40.8513 56.931C41.1913 56.319 41.6673 55.8487 42.2793 55.52C42.8913 55.18 43.6109 55.01 44.4383 55.01C45.2656 55.01 45.9683 55.1687 46.5463 55.486C47.1243 55.8033 47.5663 56.2623 47.8723 56.863C48.1896 57.4523 48.3483 58.1663 48.3483 59.005C48.3483 59.0957 48.3426 59.192 48.3313 59.294C48.3313 59.396 48.3256 59.4697 48.3143 59.515H41.4463V58.257H46.7503L46.1893 59.039C46.2233 58.971 46.2573 58.8803 46.2913 58.767C46.3366 58.6423 46.3593 58.5403 46.3593 58.461C46.3593 58.0417 46.2743 57.679 46.1043 57.373C45.9456 57.067 45.7189 56.829 45.4243 56.659C45.1409 56.489 44.8066 56.404 44.4213 56.404C43.9566 56.404 43.5599 56.506 43.2313 56.71C42.9026 56.914 42.6533 57.2087 42.4833 57.594C42.3133 57.9793 42.2226 58.4553 42.2113 59.022C42.2113 59.5887 42.2963 60.0703 42.4663 60.467C42.6363 60.8523 42.8856 61.147 43.2143 61.351C43.5543 61.555 43.9623 61.657 44.4383 61.657C44.9369 61.657 45.3733 61.555 45.7473 61.351C46.1213 61.147 46.4329 60.8353 46.6823 60.416L48.2633 61.062C47.8553 61.7647 47.3283 62.2917 46.6823 62.643C46.0363 62.9943 45.2599 63.17 44.3533 63.17ZM56.8804 56.863V55.877H58.8014C59.1754 55.877 59.5041 55.8147 59.7874 55.69C60.0707 55.5653 60.2917 55.3897 60.4504 55.163C60.6091 54.925 60.6884 54.6417 60.6884 54.313C60.6884 53.8143 60.5127 53.429 60.1614 53.157C59.8101 52.885 59.3567 52.749 58.8014 52.749H57.3564V61.351H59.0224C59.4757 61.351 59.8781 61.2773 60.2294 61.13C60.5807 60.9827 60.8584 60.7617 61.0624 60.467C61.2664 60.1723 61.3684 59.804 61.3684 59.362C61.3684 59.0447 61.3061 58.767 61.1814 58.529C61.0681 58.2797 60.9037 58.0757 60.6884 57.917C60.4844 57.747 60.2407 57.628 59.9574 57.56C59.6741 57.4807 59.3624 57.441 59.0224 57.441H56.8804V56.336H59.1414C59.7194 56.336 60.2634 56.3983 60.7734 56.523C61.2834 56.6477 61.7367 56.8403 62.1334 57.101C62.5414 57.3617 62.8587 57.696 63.0854 58.104C63.3121 58.512 63.4254 58.9993 63.4254 59.566C63.4254 60.348 63.2384 60.994 62.8644 61.504C62.5017 62.014 61.9974 62.3937 61.3514 62.643C60.7167 62.881 59.9801 63 59.1414 63H55.3504V51.1H58.9374C59.6854 51.1 60.3427 51.2077 60.9094 51.423C61.4874 51.6383 61.9351 51.967 62.2524 52.409C62.5811 52.851 62.7454 53.412 62.7454 54.092C62.7454 54.6813 62.5811 55.1857 62.2524 55.605C61.9351 56.013 61.4874 56.3247 60.9094 56.54C60.3427 56.7553 59.6854 56.863 58.9374 56.863H56.8804ZM68.7908 63.17C67.9974 63.17 67.2948 63 66.6828 62.66C66.0821 62.32 65.6174 61.844 65.2888 61.232C64.9601 60.62 64.7958 59.906 64.7958 59.09C64.7958 58.2627 64.9601 57.543 65.2888 56.931C65.6288 56.319 66.1048 55.8487 66.7168 55.52C67.3288 55.18 68.0484 55.01 68.8758 55.01C69.7031 55.01 70.4058 55.1687 70.9838 55.486C71.5618 55.8033 72.0038 56.2623 72.3098 56.863C72.6271 57.4523 72.7858 58.1663 72.7858 59.005C72.7858 59.0957 72.7801 59.192 72.7688 59.294C72.7688 59.396 72.7631 59.4697 72.7518 59.515H65.8838V58.257H71.1878L70.6268 59.039C70.6608 58.971 70.6948 58.8803 70.7288 58.767C70.7741 58.6423 70.7968 58.5403 70.7968 58.461C70.7968 58.0417 70.7118 57.679 70.5418 57.373C70.3831 57.067 70.1564 56.829 69.8618 56.659C69.5784 56.489 69.2441 56.404 68.8588 56.404C68.3941 56.404 67.9974 56.506 67.6688 56.71C67.3401 56.914 67.0908 57.2087 66.9208 57.594C66.7508 57.9793 66.6601 58.4553 66.6488 59.022C66.6488 59.5887 66.7338 60.0703 66.9038 60.467C67.0738 60.8523 67.3231 61.147 67.6518 61.351C67.9918 61.555 68.3998 61.657 68.8758 61.657C69.3744 61.657 69.8108 61.555 70.1848 61.351C70.5588 61.147 70.8704 60.8353 71.1198 60.416L72.7008 61.062C72.2928 61.7647 71.7658 62.2917 71.1198 62.643C70.4738 62.9943 69.6974 63.17 68.7908 63.17ZM74.0962 63.527H75.9152C75.9266 63.8783 76.0229 64.1957 76.2042 64.479C76.3969 64.7623 76.6576 64.9833 76.9862 65.142C77.3149 65.3007 77.6946 65.38 78.1252 65.38C78.5106 65.38 78.8789 65.2893 79.2302 65.108C79.5816 64.9267 79.8649 64.649 80.0802 64.275C80.3069 63.901 80.4202 63.4193 80.4202 62.83V55.18H82.2222V62.83C82.2222 63.7707 82.0296 64.547 81.6442 65.159C81.2702 65.771 80.7772 66.2243 80.1652 66.519C79.5532 66.825 78.8902 66.978 78.1762 66.978C77.3262 66.978 76.6009 66.8307 76.0002 66.536C75.3996 66.2527 74.9349 65.8503 74.6062 65.329C74.2889 64.8077 74.1189 64.207 74.0962 63.527ZM73.9432 59.056C73.9432 58.1833 74.1189 57.4523 74.4702 56.863C74.8216 56.2623 75.2862 55.8033 75.8642 55.486C76.4536 55.1687 77.0826 55.01 77.7512 55.01C78.4086 55.01 78.9809 55.1743 79.4682 55.503C79.9669 55.8203 80.3579 56.2793 80.6412 56.88C80.9359 57.4807 81.0832 58.206 81.0832 59.056C81.0832 59.8947 80.9359 60.6143 80.6412 61.215C80.3579 61.8157 79.9669 62.2803 79.4682 62.609C78.9809 62.9263 78.4086 63.085 77.7512 63.085C77.0826 63.085 76.4536 62.9263 75.8642 62.609C75.2862 62.2917 74.8216 61.8327 74.4702 61.232C74.1189 60.6313 73.9432 59.906 73.9432 59.056ZM75.8472 59.056C75.8472 59.5773 75.9549 60.0193 76.1702 60.382C76.3856 60.7447 76.6689 61.0223 77.0202 61.215C77.3829 61.3963 77.7739 61.487 78.1932 61.487C78.5446 61.487 78.8902 61.3963 79.2302 61.215C79.5816 61.0337 79.8649 60.7617 80.0802 60.399C80.3069 60.025 80.4202 59.5773 80.4202 59.056C80.4202 58.648 80.3522 58.2967 80.2162 58.002C80.0916 57.696 79.9216 57.441 79.7062 57.237C79.4909 57.0217 79.2472 56.863 78.9752 56.761C78.7146 56.659 78.4539 56.608 78.1932 56.608C77.7739 56.608 77.3829 56.7043 77.0202 56.897C76.6689 57.0783 76.3856 57.3503 76.1702 57.713C75.9549 58.0757 75.8472 58.5233 75.8472 59.056ZM84.4312 52.069C84.4312 51.7517 84.5445 51.4853 84.7712 51.27C85.0092 51.0547 85.2812 50.947 85.5872 50.947C85.9158 50.947 86.1878 51.0547 86.4032 51.27C86.6298 51.4853 86.7432 51.7517 86.7432 52.069C86.7432 52.375 86.6298 52.6413 86.4032 52.868C86.1878 53.0833 85.9158 53.191 85.5872 53.191C85.2812 53.191 85.0092 53.0833 84.7712 52.868C84.5445 52.6413 84.4312 52.375 84.4312 52.069ZM84.6862 55.18H86.4882V63H84.6862V55.18ZM94.0468 58.24C94.0468 57.662 93.9278 57.2257 93.6898 56.931C93.4518 56.6363 93.0835 56.489 92.5848 56.489C92.2448 56.489 91.9445 56.5627 91.6838 56.71C91.4231 56.846 91.2191 57.05 91.0718 57.322C90.9245 57.5827 90.8508 57.8887 90.8508 58.24V63H89.0148V55.18H90.8508V56.387C91.1001 55.9223 91.4175 55.5767 91.8028 55.35C92.1995 55.1233 92.6698 55.01 93.2138 55.01C94.0978 55.01 94.7721 55.282 95.2368 55.826C95.7015 56.3587 95.9338 57.0953 95.9338 58.036V63H94.0468V58.24ZM103.31 58.24C103.31 57.662 103.191 57.2257 102.953 56.931C102.715 56.6363 102.347 56.489 101.848 56.489C101.508 56.489 101.208 56.5627 100.947 56.71C100.687 56.846 100.483 57.05 100.335 57.322C100.188 57.5827 100.114 57.8887 100.114 58.24V63H98.2785V55.18H100.114V56.387C100.364 55.9223 100.681 55.5767 101.066 55.35C101.463 55.1233 101.933 55.01 102.477 55.01C103.361 55.01 104.036 55.282 104.5 55.826C104.965 56.3587 105.197 57.0953 105.197 58.036V63H103.31V58.24ZM110.942 63.17C110.149 63.17 109.446 63 108.834 62.66C108.233 62.32 107.769 61.844 107.44 61.232C107.111 60.62 106.947 59.906 106.947 59.09C106.947 58.2627 107.111 57.543 107.44 56.931C107.78 56.319 108.256 55.8487 108.868 55.52C109.48 55.18 110.2 55.01 111.027 55.01C111.854 55.01 112.557 55.1687 113.135 55.486C113.713 55.8033 114.155 56.2623 114.461 56.863C114.778 57.4523 114.937 58.1663 114.937 59.005C114.937 59.0957 114.931 59.192 114.92 59.294C114.92 59.396 114.914 59.4697 114.903 59.515H108.035V58.257H113.339L112.778 59.039C112.812 58.971 112.846 58.8803 112.88 58.767C112.925 58.6423 112.948 58.5403 112.948 58.461C112.948 58.0417 112.863 57.679 112.693 57.373C112.534 57.067 112.308 56.829 112.013 56.659C111.73 56.489 111.395 56.404 111.01 56.404C110.545 56.404 110.149 56.506 109.82 56.71C109.491 56.914 109.242 57.2087 109.072 57.594C108.902 57.9793 108.811 58.4553 108.8 59.022C108.8 59.5887 108.885 60.0703 109.055 60.467C109.225 60.8523 109.474 61.147 109.803 61.351C110.143 61.555 110.551 61.657 111.027 61.657C111.526 61.657 111.962 61.555 112.336 61.351C112.71 61.147 113.022 60.8353 113.271 60.416L114.852 61.062C114.444 61.7647 113.917 62.2917 113.271 62.643C112.625 62.9943 111.849 63.17 110.942 63.17ZM118.509 55.18V63H116.69V55.18H118.509ZM120.838 57.135C120.668 56.999 120.509 56.897 120.362 56.829C120.214 56.761 120.027 56.727 119.801 56.727C119.495 56.727 119.245 56.8063 119.053 56.965C118.86 57.1237 118.718 57.3447 118.628 57.628C118.548 57.9 118.509 58.223 118.509 58.597L117.897 58.24C117.897 57.6167 118.01 57.067 118.237 56.591C118.475 56.1037 118.775 55.7183 119.138 55.435C119.512 55.1517 119.897 55.01 120.294 55.01C120.577 55.01 120.843 55.0553 121.093 55.146C121.342 55.2253 121.552 55.3727 121.722 55.588L120.838 57.135Z" fill="white"/>
<g opacity="0.1">
<path d="M136.865 89.8148C123.724 82.1338 108.074 81.0946 93.6954 85.9467C88.7903 87.6021 84.11 89.9342 79.8639 92.8989C75.4654 95.97 72.1655 100.161 68.2572 103.784C64.3041 107.448 60.2113 111.014 55.5654 113.784C49.0141 117.689 41.3847 120.024 35.9197 125.344C29.906 131.198 27.4319 139.885 27.0546 148.269C26.7366 155.337 27.7779 162.577 30.9536 168.899C34.2745 175.511 39.7732 180.827 45.8784 185.006C53.7913 190.423 62.8757 194.119 72.3224 195.766C91.084 199.038 110.637 194.121 127.3 184.898C137.177 179.432 146.321 172.373 153.08 163.332C159.838 154.29 164.092 143.152 163.784 131.868C163.309 114.493 151.871 98.5861 136.865 89.8148Z" fill="#ECDEFF"/>
<path d="M67.0962 100.222C68.3231 98.5014 69.4622 96.621 69.7149 94.523C69.9672 92.4246 69.115 90.0649 67.2222 89.1248C65.3374 88.1884 62.9525 88.9233 61.4297 90.376C59.9065 91.8288 59.0805 93.8549 58.4265 95.8552C57.1698 99.6993 56.2421 103.941 53.2408 106.652C52.5472 107.279 51.7517 107.812 51.2031 108.568C49.9068 110.356 51.2205 112.225 53.2571 112.438C55.0345 112.623 56.5475 110.941 57.8154 109.928C61.3346 107.116 64.4775 103.894 67.0962 100.222Z" fill="#ECDEFF"/>
<path d="M128.865 100.578C129.394 100.581 129.94 100.582 130.427 100.375C131.273 100.016 131.757 99.1013 131.938 98.2008C132.135 97.2248 132.038 96.1591 131.502 95.32C130.966 94.4809 129.946 93.9235 128.965 94.0938C127.984 94.2641 127.173 95.2626 127.355 96.2415C126.98 95.5005 125.721 95.4856 125.329 96.2172C125.209 95.044 123.663 94.3828 122.617 94.9279C121.572 95.4732 121.159 96.8639 121.503 97.992C120.719 97.4223 119.41 97.9801 119.278 98.9397C118.953 98.6413 118.682 98.2615 118.279 98.0817C117.876 97.902 117.275 98.0621 117.219 98.5C116.788 98.1024 116.133 97.9644 115.578 98.1547C115.023 98.3446 114.591 98.8548 114.494 99.4335C114.262 100.813 115.321 100.612 116.155 100.495C117.506 100.307 119.025 100.507 120.39 100.517C123.215 100.537 126.04 100.557 128.865 100.578Z" fill="white"/>
<path d="M41.4037 119.945C41.9328 119.949 42.4792 119.95 42.9658 119.743C43.8114 119.383 44.2958 118.469 44.477 117.568C44.6734 116.592 44.5761 115.527 44.0405 114.688C43.505 113.848 42.4847 113.291 41.5039 113.461C40.5232 113.632 39.712 114.63 39.8936 115.609C39.5189 114.868 38.26 114.853 37.8679 115.585C37.7477 114.412 36.2013 113.75 35.1559 114.295C34.1102 114.841 33.6981 116.232 34.0412 117.36C33.2576 116.79 31.9487 117.348 31.8168 118.307C31.4911 118.009 31.221 117.629 30.8176 117.449C30.4142 117.27 29.8133 117.43 29.7577 117.868C29.3264 117.47 28.6721 117.332 28.1169 117.522C27.5617 117.712 27.1293 118.222 27.0323 118.801C26.801 120.181 27.8591 119.979 28.6935 119.863C30.0446 119.674 31.5634 119.874 32.9287 119.884C35.7536 119.905 38.5785 119.925 41.4037 119.945Z" fill="#ECDEFF"/>
<path d="M41.8342 137.251C41.2355 137.256 40.6175 137.256 40.0667 137.022C39.1099 136.615 38.5616 135.581 38.3565 134.562C38.1343 133.457 38.2443 132.251 38.8503 131.302C39.4563 130.352 40.611 129.721 41.721 129.914C42.8309 130.106 43.7485 131.237 43.543 132.344C43.9671 131.506 45.3915 131.489 45.8352 132.317C45.9714 130.99 47.7211 130.241 48.9041 130.858C50.0875 131.475 50.5537 133.049 50.1655 134.326C51.0522 133.681 52.5333 134.312 52.6825 135.398C53.0507 135.061 53.3568 134.631 53.8132 134.428C54.2696 134.224 54.9497 134.405 55.0125 134.901C55.5005 134.451 56.2409 134.295 56.869 134.51C57.4972 134.725 57.9866 135.302 58.0963 135.957C58.3577 137.518 57.1606 137.29 56.2165 137.158C54.6879 136.945 52.969 137.171 51.4244 137.183C48.2277 137.206 45.031 137.228 41.8342 137.251Z" fill="white"/>
</g>
<path d="M76.457 168.14C64.0492 168.14 57.9372 156.88 57.6834 156.401C57.1068 155.313 57.5211 153.964 58.6086 153.388C59.6957 152.812 61.0417 153.224 61.6198 154.308C61.834 154.707 66.7765 163.682 76.457 163.682C77.6879 163.682 78.6861 164.68 78.6861 165.911C78.6861 167.141 77.6879 168.14 76.457 168.14Z" fill="#DDA38C"/>
<path d="M84.4487 197.536C84.4487 197.536 84.944 202.233 93.9445 202.233C102.945 202.233 104.119 197.536 104.119 197.536H84.4487Z" stroke="#244E80" stroke-width="0.343641" stroke-miterlimit="10"/>
<path d="M102.677 199.15H85.2134C83.2342 199.15 81.6147 197.531 81.6147 195.552V186.896C81.6147 184.916 83.2342 183.297 85.2134 183.297H102.677C104.657 183.297 106.276 184.916 106.276 186.896V195.552C106.276 197.531 104.657 199.15 102.677 199.15Z" fill="white" stroke="#244E80" stroke-width="0.343641" stroke-miterlimit="10"/>
<path d="M105.505 184.681L81.6152 188.617V189.855L106.11 185.819C105.978 185.402 105.77 185.018 105.505 184.681Z" fill="#DEEEFC"/>
<path d="M106.276 187.229L81.6152 191.292V192.529L106.276 188.466V187.229Z" fill="#DEEEFC"/>
<path d="M81.6152 195.202L106.276 191.139V189.902L81.6152 193.965V195.202Z" fill="#DEEEFC"/>
<path d="M82.3756 197.752L106.277 193.814V192.577L81.7769 196.614C81.9065 197.031 82.1131 197.414 82.3756 197.752Z" fill="#DEEEFC"/>
<path d="M85.2126 199.151H90.1094L106.141 196.51C106.226 196.204 106.275 195.885 106.275 195.553V195.251L83.9727 198.925C84.3604 199.069 84.7769 199.151 85.2126 199.151Z" fill="#DEEEFC"/>
<path d="M105.505 184.681L81.6152 188.617V189.855L106.11 185.819C105.978 185.402 105.77 185.018 105.505 184.681Z" stroke="#244E80" stroke-width="0.343641" stroke-miterlimit="10"/>
<path d="M106.276 187.229L81.6152 191.292V192.529L106.276 188.466V187.229Z" stroke="#244E80" stroke-width="0.343641" stroke-miterlimit="10"/>
<path d="M81.6152 195.202L106.276 191.139V189.902L81.6152 193.965V195.202Z" stroke="#244E80" stroke-width="0.343641" stroke-miterlimit="10"/>
<path d="M82.3756 197.752L106.277 193.814V192.577L81.7769 196.614C81.9065 197.031 82.1131 197.414 82.3756 197.752Z" stroke="#244E80" stroke-width="0.343641" stroke-miterlimit="10"/>
<path d="M85.2126 199.151H90.1094L106.141 196.51C106.226 196.204 106.275 195.885 106.275 195.553V195.251L83.9727 198.925C84.3604 199.069 84.7769 199.151 85.2126 199.151Z" stroke="#244E80" stroke-width="0.343641" stroke-miterlimit="10"/>
<path d="M102.677 199.15H85.2134C83.2342 199.15 81.6147 197.531 81.6147 195.552V186.896C81.6147 184.916 83.2342 183.297 85.2134 183.297H102.677C104.657 183.297 106.276 184.916 106.276 186.896V195.552C106.276 197.531 104.657 199.15 102.677 199.15Z" stroke="#244E80" stroke-width="0.343641" stroke-miterlimit="10"/>
<path d="M125.749 135.231C125.046 125.312 118.921 105.964 95.0867 104.802V104.746C94.7018 104.746 94.322 104.751 93.9455 104.76C93.5693 104.751 93.1892 104.746 92.8043 104.746V104.802C68.9698 105.964 62.8454 125.312 62.1425 135.231C61.4177 145.46 66.7335 153.433 71.1633 161.407C75.5931 169.381 77.2038 180.053 77.8886 183.918C78.5734 187.784 82.0769 187.664 82.0769 187.664H92.8046H93.9459L95.0871 187.664L105.815 187.664C105.815 187.664 109.318 187.785 110.003 183.918C110.687 180.053 112.298 169.381 116.728 161.407C121.158 153.433 126.474 145.46 125.749 135.231Z" fill="#FBB040"/>
<path d="M99.9135 107.514C99.1485 107.939 98.5857 108.582 98.7484 109.396C98.8402 109.856 99.1285 110.253 99.4473 110.598C100.546 111.786 102.058 112.515 103.597 113.015C104.177 113.204 104.78 113.366 105.389 113.334C105.998 113.301 106.622 113.047 106.973 112.547C107.364 111.988 107.346 111.235 107.174 110.575C106.91 109.564 106.231 108.963 105.396 108.382C104.454 107.727 103.457 107.05 102.315 106.94C101.667 106.877 100.687 107.084 99.9135 107.514Z" fill="#FCBC68"/>
<path d="M79.0465 164.17C71.8666 152.296 71.2167 142.477 71.2167 142.477C69.672 122.96 78.3918 111.63 84.9436 105.967C67.5755 110.49 62.7608 126.506 62.1425 135.231C61.4177 145.46 66.7335 153.433 71.1633 161.407C75.5931 169.381 77.2038 180.052 77.8886 183.918C78.5734 187.784 82.0769 187.664 82.0769 187.664H82.1357C82.5061 178.286 81.9535 168.978 79.0465 164.17Z" fill="#FCBC68"/>
<path d="M74.8679 152.35L67.5649 154.989C68.2715 156.293 69.0021 157.581 69.7297 158.863C73.421 156.029 74.8679 152.35 74.8679 152.35Z" fill="#E29A3B"/>
<path d="M145.243 127.647H98.811V174.079H145.243V127.647Z" fill="white"/>
<path d="M125.748 135.23C125.594 133.058 125.18 130.434 124.377 127.647H98.811V174.079H111.992C113.033 169.962 114.534 165.354 116.727 161.406C121.157 153.433 126.473 145.459 125.748 135.23Z" fill="#DEEEFC"/>
<path d="M124.379 127.647C124.379 127.647 129.617 139.881 120.151 155.314C120.151 155.314 116.033 162.719 113.675 168.399" stroke="#244E80" stroke-width="0.343641" stroke-miterlimit="10" stroke-linejoin="round"/>
<path d="M127.633 138.209L115.959 166.361" stroke="#244E80" stroke-width="0.343641" stroke-miterlimit="10" stroke-linecap="round" stroke-linejoin="round"/>
<path d="M128.629 137.797C128.468 138.186 128.023 138.37 127.634 138.209C127.246 138.048 127.061 137.602 127.222 137.214C127.384 136.825 127.829 136.641 128.218 136.802C128.606 136.963 128.791 137.409 128.629 137.797Z" fill="white" stroke="#244E80" stroke-width="0.343641" stroke-miterlimit="10" stroke-linecap="round" stroke-linejoin="round"/>
<path d="M116.372 167.356C116.211 167.744 115.765 167.929 115.377 167.767C114.988 167.606 114.804 167.161 114.965 166.772C115.126 166.384 115.572 166.199 115.96 166.36C116.349 166.522 116.533 166.967 116.372 167.356Z" fill="white" stroke="#244E80" stroke-width="0.343641" stroke-miterlimit="10" stroke-linecap="round" stroke-linejoin="round"/>
<path d="M123.018 151.881L121.388 151.035L120.542 152.665L122.172 153.512L123.018 151.881Z" fill="white" stroke="#244E80" stroke-width="0.343641" stroke-miterlimit="10" stroke-linejoin="round"/>
<path d="M123.562 152.537C123.395 152.474 123.264 152.689 123.396 152.809L126.29 155.441C126.408 155.548 126.416 155.731 126.309 155.849C126.202 155.966 126.02 155.975 125.902 155.868L123.009 153.236C122.876 153.116 122.675 153.266 122.753 153.427L124.818 157.677C124.839 157.72 124.878 157.752 124.924 157.763L127.669 158.447C127.727 158.462 127.788 158.443 127.829 158.399L128.373 157.801L128.447 157.719L128.991 157.121C129.032 157.076 129.044 157.014 129.024 156.957L128.084 154.289C128.068 154.244 128.033 154.208 127.988 154.191L123.562 152.537Z" fill="#244E80"/>
<path d="M129.493 157.222L127.967 158.9L128.741 159.604L130.267 157.926L129.493 157.222Z" fill="#244E80"/>
<path d="M143.719 174.079H99.8291" stroke="#244E80" stroke-width="0.343641" stroke-miterlimit="10" stroke-dasharray="0.95 0.95"/>
<path d="M99.3259 174.079H98.811V173.564" stroke="#244E80" stroke-width="0.343641" stroke-miterlimit="10"/>
<path d="M98.811 172.556V128.666" stroke="#244E80" stroke-width="0.343641" stroke-miterlimit="10" stroke-dasharray="0.95 0.95"/>
<path d="M98.811 128.161V127.646H99.3259" stroke="#244E80" stroke-width="0.343641" stroke-miterlimit="10"/>
<path d="M100.334 127.646H144.224" stroke="#244E80" stroke-width="0.343641" stroke-miterlimit="10" stroke-dasharray="0.95 0.95"/>
<path d="M87.8459 187.591C88.3165 180.623 88.5652 176.94 88.9334 171.49C89.4987 163.118 89.8219 153.901 84.6677 147.28C84.3533 146.876 83.984 146.463 83.4844 146.354C82.459 146.13 81.6754 147.252 81.3142 148.238C80.5546 150.309 80.2793 152.74 81.4013 154.64C82.3472 156.242 84.1151 157.179 85.8866 157.747C90.0586 159.087 94.7386 158.766 98.6891 156.871" stroke="#244E80" stroke-width="0.343641" stroke-miterlimit="10" stroke-linejoin="round"/>
<path d="M109.524 104.746H79.0474" stroke="#244E80" stroke-width="0.343641" stroke-miterlimit="10" stroke-linecap="round" stroke-linejoin="round"/>
<path d="M110.286 105.507C109.866 105.507 109.525 105.166 109.525 104.746C109.525 104.325 109.866 103.984 110.286 103.984C110.707 103.984 111.048 104.325 111.048 104.746C111.048 105.166 110.707 105.507 110.286 105.507Z" fill="white" stroke="#244E80" stroke-width="0.343641" stroke-miterlimit="10" stroke-linecap="round" stroke-linejoin="round"/>
<path d="M78.2853 105.507C77.8649 105.507 77.5239 105.166 77.5239 104.746C77.5239 104.325 77.8649 103.984 78.2853 103.984C78.7058 103.984 79.0468 104.325 79.0468 104.746C79.0468 105.166 78.7058 105.507 78.2853 105.507Z" fill="white" stroke="#244E80" stroke-width="0.343641" stroke-miterlimit="10" stroke-linecap="round" stroke-linejoin="round"/>
<path d="M70.7729 114.334C70.7729 114.334 77.8109 105.324 92.8025 104.745C92.8025 104.745 107.116 104.018 116.893 114.096" stroke="#244E80" stroke-width="0.343641" stroke-miterlimit="10" stroke-linecap="round" stroke-linejoin="round"/>
<path d="M70.0664 205.032L70.5007 206.041C70.5007 206.041 74.2177 206.251 77.6998 203.102L76.2264 202.994L70.0664 205.032Z" fill="#171C27"/>
<path d="M53.8111 175.696C53.8111 175.696 51.6002 191.45 46.2612 202.843C46.2612 202.843 49.3646 204.683 52.3733 204.508C52.3733 204.508 58.1865 191.976 60.2899 176.464L53.8111 175.696Z" fill="#062538"/>
<path d="M50.8313 170.161C50.8313 170.161 50.6556 175.351 52.9144 176.785C55.1732 178.22 67.325 196.304 70.11 204.984C70.11 204.984 73.7388 205.224 76.2703 202.946C76.2703 202.946 68.5066 185.155 62.0932 175.696C62.0932 175.696 63.6559 172.643 63.4744 169.661L50.8313 170.161Z" fill="#0A3759"/>
<path d="M46.2621 202.842L45.7759 203.661C45.7759 203.661 49.0463 205.811 53.1341 205.478L52.3745 204.507C52.3745 204.507 47.566 203.385 46.2621 202.842Z" fill="#171C27"/>
<path d="M62.6532 156.15L63.4745 169.66C63.4745 169.66 60.6841 171.722 56.3549 171.818C52.0257 171.914 50.8314 170.161 50.8314 170.161C50.8314 170.161 49.748 156.943 49.854 156.796C49.96 156.649 49.866 152.269 56.1526 152.295C62.439 152.319 62.6532 156.15 62.6532 156.15Z" fill="#2481D3"/>
<path d="M62.599 155.824C58.6641 156.107 52.7735 156.606 51.7188 157.119C51.7188 157.119 56.8609 160.913 62.9254 160.616L62.6538 156.15C62.6538 156.15 62.6462 156.026 62.599 155.824Z" fill="#1364A0"/>
<path d="M54.2095 148.739L54.724 152.447L56.6488 153.767L58.168 152.525L57.8586 150.294L54.2095 148.739Z" fill="#EEB399"/>
<path d="M54.9302 150.545L57.9693 151.104L58.1342 152.291C56.4824 152.3 54.9302 150.545 54.9302 150.545Z" fill="#CC957F"/>
<path d="M57.2961 151.757L58.3549 151.61C59.7949 151.41 60.8098 150.069 60.6101 148.628L60.0879 144.864C59.8882 143.424 58.5466 142.409 57.1062 142.608L56.0474 142.756C54.6073 142.955 53.5925 144.297 53.7922 145.737L54.3143 149.502C54.5144 150.942 55.856 151.957 57.2961 151.757Z" fill="#EEB399"/>
<path d="M54.7598 145.389C55.0953 145.514 55.5023 145.487 55.7739 145.254C56.0458 145.022 56.1232 144.567 55.889 144.296C56.1929 144.403 56.5237 144.48 56.8363 144.401C57.1489 144.322 57.4314 144.047 57.4231 143.725C57.5992 143.844 57.7836 143.968 57.9946 143.996C58.2056 144.025 58.4499 143.927 58.516 143.724C58.7488 143.903 59.0403 144.005 59.3337 144.009C59.5044 144.011 59.683 143.977 59.8152 143.869C59.943 143.764 60.0112 143.602 60.0436 143.44C60.142 142.945 59.9219 142.402 59.5073 142.116C59.4031 142.044 59.2832 141.986 59.1561 141.985C59.0294 141.983 58.8958 142.05 58.8482 142.167C58.5861 141.739 58.1366 141.414 57.6369 141.366C57.1373 141.318 56.605 141.581 56.3941 142.036C56.2928 141.855 56.08 141.756 55.8719 141.745C55.6642 141.735 55.4598 141.799 55.2681 141.88C55.0143 141.985 54.767 142.123 54.5822 142.326C54.3977 142.53 54.2823 142.81 54.3244 143.082C54.1163 143.005 53.8905 143.127 53.7155 143.262C53.4613 143.46 53.2311 143.714 53.1578 144.028C53.0844 144.341 53.2126 144.717 53.5078 144.846C53.2228 145.045 53.0514 145.397 53.0703 145.745C53.0891 146.093 53.2976 146.425 53.6026 146.592C53.1919 146.815 53.0979 147.457 53.4275 147.788C53.2271 147.876 53.1342 148.132 53.1915 148.343C53.2489 148.554 53.4286 148.717 53.6312 148.8C53.8262 148.881 54.0622 148.893 54.2398 148.779C54.417 148.665 54.4943 148.42 54.3876 148.234C54.405 148.265 54.7721 147.835 54.7906 147.768C54.8444 147.571 54.8226 147.306 54.8396 147.097C54.8872 146.527 54.8603 145.952 54.7598 145.389Z" fill="#171C27"/>
<path d="M53.4142 148.414C53.4734 148.84 53.8667 149.138 54.2929 149.079C54.7192 149.019 55.0166 148.626 54.9574 148.2C54.8982 147.774 54.505 147.476 54.0787 147.535C53.6524 147.595 53.3551 147.988 53.4142 148.414Z" fill="#EEB399"/>
<path d="M55.3176 148.828C55.4984 149.053 55.713 149.248 55.9276 149.441C56.1516 149.642 56.3894 149.85 56.6828 149.918C57.0942 150.015 57.5194 149.816 57.856 149.56C58.1926 149.304 58.4856 148.987 58.8578 148.786C59.3523 148.519 59.9492 148.487 60.4982 148.606C60.638 148.637 60.7818 148.68 60.8842 148.78C60.9993 148.892 61.0433 149.057 61.0763 149.215C61.1761 149.692 61.2212 150.18 61.2103 150.666C61.203 150.987 61.1692 151.318 61.0207 151.603C60.8236 151.981 60.4398 152.239 60.0302 152.359C59.6206 152.479 59.1849 152.475 58.7601 152.435C57.5964 152.324 56.4014 151.902 55.6647 150.994C55.3796 150.643 55.1749 150.234 54.9868 149.823C54.7123 149.221 54.4679 148.606 54.2559 147.98C54.1669 147.718 54.0623 147.373 54.2087 147.111C54.3662 146.828 54.5964 146.851 54.6967 147.139C54.7947 147.42 54.7729 147.741 54.8757 148.031C54.9773 148.32 55.1262 148.591 55.3176 148.828Z" fill="#171C27"/>
<path d="M71.3087 149.685C63.4346 156.916 54.5942 153.482 54.2003 153.324C53.0634 152.861 51.7653 153.4 51.2958 154.535C50.8253 155.672 51.3659 156.976 52.5039 157.447C52.7432 157.546 55.7071 158.733 59.8679 158.733C64.0057 158.733 69.3269 157.558 74.3239 152.969C73.6732 150.793 71.3087 149.685 71.3087 149.685Z" fill="#EEB399"/>
<path d="M58.3105 154.096C55.9322 153.864 54.3408 153.246 54.1745 153.18C52.9737 152.69 51.6027 153.26 51.1067 154.459C50.6096 155.661 51.1807 157.037 52.3826 157.535C52.5859 157.618 54.6541 158.446 57.7434 158.767C58.4184 157.144 58.3588 154.898 58.3105 154.096Z" fill="#2481D3"/>
<path d="M58.2209 154.088C58.2209 154.088 56.0594 153.907 54.1753 153.18" stroke="#1364A0" stroke-width="0.0974223" stroke-miterlimit="10" stroke-linecap="round" stroke-linejoin="round"/>
<path d="M73.0769 148.119C73.2283 148.006 73.3917 147.894 73.5794 147.874C73.7671 147.853 73.9821 147.96 74.0159 148.146C74.0674 148.431 73.7058 148.611 73.6034 148.882C73.5268 149.085 73.6103 149.318 73.745 149.489C73.8797 149.659 74.0609 149.786 74.2185 149.935C74.9744 150.653 75.0906 151.945 74.4748 152.786C74.3586 152.944 74.2065 153.094 74.013 153.126C73.7682 153.167 73.5391 153.01 73.3405 152.862C72.8075 152.463 72.269 152.059 71.8394 151.55C71.4524 151.092 70.8722 150.273 71.2955 149.716C71.7567 149.11 72.4694 148.57 73.0769 148.119Z" fill="#EEB399"/>
<path d="M130.217 108.61L127.444 110.496L131.756 111.64V115.284L133.861 112.718L138.636 113.931L143.359 103.476L130.217 108.61Z" fill="#A7A9AC"/>
<path d="M143.64 101.457L127.251 108.774L132.031 110.811L143.64 101.457Z" fill="white"/>
<path d="M129.774 116.278C128.897 117.062 127.841 117.646 126.707 117.96C125.508 118.292 124.164 118.311 123.078 117.703C121.993 117.094 121.275 115.749 121.654 114.564C122.032 113.379 123.685 112.724 124.641 113.52C125.401 114.154 125.434 115.373 124.956 116.239C124.477 117.105 123.614 117.684 122.748 118.162C120.27 119.529 117.443 120.348 114.618 120.185C112.135 120.043 109.663 119.095 107.854 117.405" stroke="#244E80" stroke-width="0.292232" stroke-linecap="round" stroke-linejoin="round" stroke-dasharray="0.97 0.97"/>
<path d="M107.49 117.046C107.372 116.922 107.257 116.795 107.146 116.664" stroke="#244E80" stroke-width="0.292232" stroke-linecap="round" stroke-linejoin="round"/>
<path d="M75.5599 135.908C75.5599 132.703 72.9616 130.105 69.7565 130.105C66.5515 130.105 63.9531 132.703 63.9531 135.908C63.9531 138.39 65.5137 140.502 67.7047 141.332L66.9429 143.383L69.9079 141.704C73.0426 141.623 75.5599 139.062 75.5599 135.908Z" fill="white"/>
<path d="M70.8008 134.356L67.9414 135.789L69.636 136.033L70.2899 137.419L70.8008 134.356Z" fill="#244E80"/>
<path d="M72.3343 138.328H67.1758V133.17H72.3343V138.328ZM67.321 138.183H72.1894V133.315H67.321V138.183Z" fill="#244E80"/>
<path d="M72.2618 133.578C72.4479 133.578 72.5987 133.428 72.5987 133.241C72.5987 133.055 72.4479 132.905 72.2618 132.905C72.0757 132.905 71.9248 133.055 71.9248 133.241C71.9248 133.428 72.0757 133.578 72.2618 133.578Z" fill="#244E80"/>
<path d="M67.2491 133.578C67.4352 133.578 67.586 133.428 67.586 133.241C67.586 133.055 67.4352 132.904 67.2491 132.904C67.063 132.904 66.9121 133.055 66.9121 133.241C66.9121 133.428 67.063 133.578 67.2491 133.578Z" fill="#244E80"/>
<path d="M67.2491 138.592C67.4352 138.592 67.586 138.442 67.586 138.255C67.586 138.069 67.4352 137.918 67.2491 137.918C67.063 137.918 66.9121 138.069 66.9121 138.255C66.9121 138.442 67.063 138.592 67.2491 138.592Z" fill="#244E80"/>
<path d="M72.2618 138.592C72.4479 138.592 72.5987 138.442 72.5987 138.255C72.5987 138.069 72.4479 137.918 72.2618 137.918C72.0757 137.918 71.9248 138.069 71.9248 138.255C71.9248 138.442 72.0757 138.592 72.2618 138.592Z" fill="#244E80"/>
<path d="M86.2304 206.987C86.2304 206.987 82.5381 207.011 82.6772 203.598C82.6772 203.598 82.5465 200.348 86.4944 200.509C86.4944 200.509 87.1876 205.151 86.2304 206.987Z" fill="#FF5252"/>
<path d="M90.2786 200.663L86.4947 200.509C86.4947 200.509 84.1596 203.645 86.2307 206.987L90.1032 207.145L90.2786 200.663Z" fill="#674A6C"/>
<path d="M142.652 202.795L90.2786 200.662C90.2786 200.662 87.7191 204.023 90.0146 207.14L142.388 209.273L148.709 206.286L142.652 202.795Z" fill="#FBB040"/>
<path d="M89.4627 202.204L143.437 204.402L143.342 206.725L89.064 204.514C89.0233 203.647 89.2179 202.848 89.4627 202.204Z" fill="#EFA33F"/>
<path d="M90.0147 207.142C89.364 206.258 89.104 205.355 89.0645 204.514L143.343 206.725C144.608 205.962 146.71 206.218 148.175 206.54L142.388 209.275L90.0147 207.142Z" fill="#DB9037"/>
<path d="M86.941 200.729C86.941 200.729 85.0515 203.427 86.6302 206.77C86.6302 206.77 85.3568 203.68 86.941 200.729Z" fill="#36253A"/>
<path d="M87.6871 200.76C87.6871 200.76 85.7976 203.458 87.3763 206.801C87.3763 206.801 86.1026 203.712 87.6871 200.76Z" fill="#36253A"/>
<path d="M88.4303 200.79C88.4303 200.79 86.5407 203.488 88.1195 206.831C88.1195 206.831 86.8457 203.741 88.4303 200.79Z" fill="#36253A"/>
<path d="M89.1764 200.819C89.1764 200.819 87.2868 203.518 88.8656 206.861C88.8656 206.861 87.5922 203.771 89.1764 200.819Z" fill="#36253A"/>
<path d="M129.431 205.34L131.237 202.332L105.779 201.295L105.001 207.752L127.054 208.65C128.291 206.875 129.431 205.34 129.431 205.34Z" fill="#D1D3D4"/>
<path d="M110.941 215.38V216.482C110.941 216.482 106.552 217.336 102.581 216.482L104.39 215.38H110.941Z" fill="#171C27"/>
<path d="M126.482 197.869L126.668 208.127L138.798 208.802C138.798 208.802 139.591 212.612 138.798 214.305H126.668C126.668 214.305 120.441 215.42 120.096 209.444C119.752 203.467 119.723 199.495 119.723 199.495C119.723 199.495 123.955 197.358 126.482 197.869Z" fill="#A05E47"/>
<path d="M126.666 208.03L126.551 201.672L119.777 202.102C119.819 203.577 119.892 205.617 120.02 208.063C121.453 208.356 123.92 208.645 126.666 208.03Z" fill="#82493A"/>
<path d="M126.676 196.36C126.676 196.36 128.094 200.903 125.451 201.866C122.807 202.828 110.391 201.866 110.391 201.866L110.941 215.381C110.941 215.381 107.413 216.481 104.389 215.381L103.977 199.483C103.977 199.483 103 194.933 111.857 195.678L126.676 196.36Z" fill="#A05E47"/>
<path d="M107.943 196.139C107.943 196.139 107.541 200.628 110.513 204.889L110.39 201.865C110.39 201.865 112.995 202.066 116.073 202.193C116.003 201.224 115.906 200.534 115.906 200.534L107.943 196.139Z" fill="#82493A"/>
<path d="M107.963 195.679C107.963 195.679 107.129 204.476 116.884 205.48C125.931 206.411 125.725 206.954 128.95 206.272C129.37 206.184 129.606 205.733 129.433 205.34C128.726 203.74 127.133 199.85 126.676 196.361L115.301 195.679C115.301 195.679 111.207 195.441 107.963 195.679Z" fill="#0D314C"/>
<path d="M107.882 170.43C107.781 170.291 107.67 170.148 107.512 170.08C107.354 170.011 107.138 170.045 107.058 170.198C106.935 170.432 107.201 170.687 107.216 170.951C107.227 171.149 107.091 171.329 106.927 171.44C106.763 171.552 106.571 171.613 106.393 171.7C105.539 172.118 105.085 173.211 105.391 174.111C105.449 174.28 105.54 174.453 105.7 174.533C105.902 174.635 106.144 174.562 106.358 174.487C106.931 174.285 107.51 174.081 108.023 173.755C108.485 173.462 109.213 172.907 108.997 172.307C108.761 171.653 108.288 170.989 107.882 170.43Z" fill="#A05E47"/>
<path d="M125.304 192.813C125.339 192.813 125.373 192.812 125.408 192.81C127.163 192.724 128.491 192.171 129.353 191.163C130.129 190.258 130.324 189.173 130.249 188.459C130.241 188.384 130.229 188.31 130.213 188.236C129.436 184.636 126.521 180.006 126.397 179.811C125.778 178.831 124.48 178.539 123.5 179.16C122.52 179.78 122.228 181.078 122.848 182.058C123.519 183.12 125.266 186.171 125.949 188.505C125.789 188.551 125.545 188.597 125.204 188.614C124.045 188.671 123.151 189.656 123.208 190.815C123.263 191.939 124.191 192.813 125.304 192.813Z" fill="#E54C64"/>
<path d="M125.205 188.614C124.046 188.671 123.152 189.656 123.209 190.815C123.263 191.938 124.192 192.813 125.305 192.813C125.34 192.813 125.374 192.812 125.409 192.811C126.74 192.746 127.824 192.41 128.647 191.813C126.744 188.771 126.269 182.872 126.269 182.872L123.828 183.737C124.59 185.124 125.5 186.969 125.949 188.505C125.789 188.552 125.546 188.598 125.205 188.614Z" fill="#CC3754"/>
<path d="M112.468 178.631L118.739 178.44C119.896 178.391 120.867 179.316 120.902 180.475C120.938 181.635 120.026 182.603 118.867 182.639L111.301 182.87C111.279 182.871 111.258 182.871 111.236 182.871C110.467 182.871 109.756 182.45 109.389 181.769L105.358 174.311C106.561 173.528 109.054 172.314 109.054 172.314L112.468 178.631Z" fill="#E54C64"/>
<path d="M123.67 174.697L123.478 178.366L121.708 179.818L120.117 178.731L120.232 176.524L123.67 174.697Z" fill="#A05E47"/>
<path d="M120.853 177.904L119.907 177.854C118.454 177.778 117.327 176.528 117.403 175.075L117.592 171.451C117.668 169.999 118.919 168.872 120.372 168.947L121.318 168.997C122.771 169.073 123.897 170.323 123.822 171.776L123.632 175.4C123.556 176.852 122.306 177.979 120.853 177.904Z" fill="#A05E47"/>
<path d="M118.677 170.61C118.331 170.637 118.216 171.157 118.443 171.419C118.671 171.681 119.067 171.716 119.409 171.658C119.313 171.845 119.213 172.06 119.281 172.259C119.35 172.459 119.681 172.542 119.762 172.348C119.697 172.777 119.632 173.207 119.567 173.637C119.537 173.838 119.508 174.05 119.583 174.238C119.659 174.427 119.879 174.573 120.066 174.494C120.49 174.314 120.085 173.484 120.492 173.268C120.564 173.23 120.648 173.223 120.73 173.229C121.177 173.259 121.553 173.706 121.506 174.152C121.458 174.598 120.998 174.957 120.554 174.893C120.414 175.033 120.396 175.277 120.513 175.436C120.629 175.595 120.868 175.65 121.043 175.558C120.922 175.905 121.109 176.329 121.446 176.473C121.784 176.618 122.22 176.461 122.388 176.135C122.703 176.504 123.221 176.688 123.698 176.6C124.175 176.513 124.595 176.159 124.759 175.703C125.345 175.786 125.976 175.681 126.443 175.317C126.909 174.953 127.169 174.304 126.983 173.743C127.531 173.515 127.95 172.998 128.059 172.414C128.168 171.829 127.964 171.196 127.534 170.786C128.421 169.6 128.174 167.723 127.009 166.808C126.935 165.761 126.313 164.686 125.306 164.39C124.874 164.263 124.313 164.344 124.122 164.751C123.641 164.433 123.098 164.157 122.522 164.17C121.945 164.183 121.344 164.571 121.264 165.142C120.876 164.81 120.281 164.748 119.832 164.992C119.384 165.236 119.114 165.77 119.182 166.276C118.74 166.103 118.2 166.213 117.861 166.545C117.521 166.877 117.399 167.413 117.562 167.86C117.562 167.862 117.163 168.617 117.161 168.796C117.159 169.135 117.31 169.438 117.387 169.76C117.516 170.293 117.953 171.392 118.677 170.61Z" fill="#171C27"/>
<path d="M123.37 178.188C123.37 178.188 126.931 178.188 126.661 182.02C126.39 185.851 125.894 188.128 126.345 190.613C126.796 193.098 126.676 196.36 126.676 196.36C126.676 196.36 119.313 198.771 115.3 196.131C115.3 196.131 115.886 183.676 116.022 181.761C116.157 179.845 117.957 178.169 120.801 178.188C123.644 178.208 123.644 178.208 123.644 178.208" fill="#E54C64"/>
<path d="M120.563 196.206C124.131 196.206 126.687 194.927 126.723 194.908C126.758 194.891 126.771 194.848 126.754 194.814C126.736 194.78 126.693 194.766 126.66 194.784C126.608 194.81 121.401 197.412 115.475 195.128C115.439 195.114 115.398 195.132 115.385 195.167C115.371 195.204 115.389 195.244 115.425 195.258C117.247 195.961 119.002 196.206 120.563 196.206Z" fill="#0D314C"/>
<path d="M126.62 193.104C126.621 193.104 126.622 193.104 126.624 193.104C126.662 193.103 126.692 193.07 126.69 193.031C126.636 191.793 126.416 190.613 126.414 190.601C126.091 188.825 126.252 187.19 126.475 184.928C126.559 184.072 126.655 183.103 126.731 182.025C126.733 181.986 126.704 181.953 126.666 181.95C126.635 181.949 126.594 181.976 126.591 182.015C126.515 183.091 126.42 184.059 126.336 184.914C126.12 187.102 125.95 188.83 126.276 190.626C126.279 190.638 126.497 191.809 126.551 193.037C126.552 193.075 126.583 193.104 126.62 193.104Z" fill="#0D314C"/>
<path d="M126.34 196.423C126.379 196.423 126.41 196.391 126.41 196.353V195.375C126.41 195.337 126.379 195.305 126.34 195.305C126.302 195.305 126.27 195.336 126.27 195.375V196.353C126.27 196.391 126.302 196.423 126.34 196.423Z" fill="#0D314C"/>
<path d="M125.878 196.369C125.916 196.369 125.948 196.337 125.948 196.299V195.606C125.948 195.568 125.917 195.536 125.878 195.536C125.839 195.536 125.808 195.567 125.808 195.606V196.299C125.808 196.338 125.839 196.369 125.878 196.369Z" fill="#0D314C"/>
<path d="M125.381 196.617C125.42 196.617 125.451 196.586 125.451 196.547V195.748C125.451 195.709 125.42 195.678 125.381 195.678C125.343 195.678 125.311 195.709 125.311 195.748V196.547C125.311 196.586 125.343 196.617 125.381 196.617Z" fill="#0D314C"/>
<path d="M124.794 196.723C124.833 196.723 124.864 196.692 124.864 196.653V196.013C124.864 195.975 124.833 195.943 124.794 195.943C124.756 195.943 124.724 195.974 124.724 196.013V196.653C124.724 196.692 124.756 196.723 124.794 196.723Z" fill="#0D314C"/>
<path d="M124.263 196.849C124.302 196.849 124.334 196.818 124.334 196.779V196.067C124.334 196.029 124.302 195.997 124.263 195.997C124.225 195.997 124.193 196.028 124.193 196.067V196.779C124.194 196.818 124.225 196.849 124.263 196.849Z" fill="#0D314C"/>
<path d="M123.747 196.977C123.786 196.977 123.817 196.946 123.817 196.907V196.192C123.817 196.154 123.786 196.122 123.747 196.122C123.709 196.122 123.677 196.153 123.677 196.192V196.907C123.678 196.946 123.709 196.977 123.747 196.977Z" fill="#0D314C"/>
<path d="M123.146 196.973C123.184 196.973 123.216 196.942 123.216 196.903V196.226C123.216 196.188 123.185 196.156 123.146 196.156C123.107 196.156 123.076 196.188 123.076 196.226V196.903C123.076 196.942 123.107 196.973 123.146 196.973Z" fill="#0D314C"/>
<path d="M122.63 197.007C122.668 197.007 122.7 196.976 122.7 196.937V196.351C122.7 196.313 122.668 196.281 122.63 196.281C122.591 196.281 122.56 196.312 122.56 196.351V196.937C122.56 196.976 122.591 197.007 122.63 197.007Z" fill="#0D314C"/>
<path d="M122.17 197.189C122.209 197.189 122.24 197.158 122.24 197.119V196.422C122.24 196.383 122.209 196.352 122.17 196.352C122.132 196.352 122.1 196.383 122.1 196.422V197.119C122.1 197.158 122.132 197.189 122.17 197.189Z" fill="#0D314C"/>
<path d="M121.549 197.061C121.587 197.061 121.619 197.03 121.619 196.991V196.547C121.619 196.508 121.587 196.477 121.549 196.477C121.51 196.477 121.479 196.508 121.479 196.547V196.991C121.479 197.03 121.51 197.061 121.549 197.061Z" fill="#0D314C"/>
<path d="M121.123 197.203C121.162 197.203 121.193 197.172 121.193 197.133V196.582C121.193 196.544 121.162 196.512 121.123 196.512C121.085 196.512 121.053 196.543 121.053 196.582V197.133C121.053 197.172 121.084 197.203 121.123 197.203Z" fill="#0D314C"/>
<path d="M120.715 197.26C120.753 197.26 120.785 197.229 120.785 197.19V196.494C120.785 196.456 120.753 196.424 120.715 196.424C120.676 196.424 120.645 196.456 120.645 196.494V197.19C120.645 197.228 120.676 197.26 120.715 197.26Z" fill="#0D314C"/>
<path d="M120.269 197.281C120.308 197.281 120.339 197.25 120.339 197.211V196.493C120.339 196.454 120.308 196.423 120.269 196.423C120.231 196.423 120.199 196.454 120.199 196.493V197.211C120.199 197.25 120.23 197.281 120.269 197.281Z" fill="#0D314C"/>
<path d="M119.79 197.133C119.828 197.133 119.86 197.102 119.86 197.063V196.493C119.86 196.454 119.829 196.423 119.79 196.423C119.751 196.423 119.72 196.454 119.72 196.493V197.063C119.72 197.102 119.751 197.133 119.79 197.133Z" fill="#0D314C"/>
<path d="M119.33 197.06C119.369 197.06 119.4 197.029 119.4 196.99V196.493C119.4 196.454 119.369 196.423 119.33 196.423C119.292 196.423 119.26 196.454 119.26 196.493V196.99C119.261 197.029 119.292 197.06 119.33 197.06Z" fill="#0D314C"/>
<path d="M118.78 197.19C118.819 197.19 118.85 197.159 118.85 197.12V196.44C118.85 196.402 118.819 196.37 118.78 196.37C118.741 196.37 118.71 196.401 118.71 196.44V197.12C118.71 197.159 118.741 197.19 118.78 197.19Z" fill="#0D314C"/>
<path d="M118.267 197.07C118.305 197.07 118.337 197.039 118.337 197V196.262C118.337 196.223 118.306 196.192 118.267 196.192C118.228 196.192 118.197 196.223 118.197 196.262V197C118.197 197.039 118.228 197.07 118.267 197.07Z" fill="#0D314C"/>
<path d="M117.875 196.951C117.914 196.951 117.945 196.92 117.945 196.881V196.209C117.945 196.171 117.914 196.139 117.875 196.139C117.837 196.139 117.805 196.17 117.805 196.209V196.881C117.805 196.92 117.836 196.951 117.875 196.951Z" fill="#0D314C"/>
<path d="M117.379 196.885C117.417 196.885 117.449 196.854 117.449 196.815V196.086C117.449 196.047 117.418 196.016 117.379 196.016C117.34 196.016 117.309 196.047 117.309 196.086V196.815C117.309 196.854 117.34 196.885 117.379 196.885Z" fill="#0D314C"/>
<path d="M116.953 196.779C116.992 196.779 117.023 196.747 117.023 196.709V195.997C117.023 195.958 116.992 195.926 116.953 195.926C116.915 195.926 116.883 195.958 116.883 195.997V196.709C116.884 196.747 116.915 196.779 116.953 196.779Z" fill="#0D314C"/>
<path d="M116.457 196.652C116.495 196.652 116.527 196.621 116.527 196.582V195.942C116.527 195.904 116.496 195.872 116.457 195.872C116.418 195.872 116.387 195.903 116.387 195.942V196.582C116.387 196.621 116.418 196.652 116.457 196.652Z" fill="#0D314C"/>
<path d="M115.977 196.386C116.016 196.386 116.047 196.355 116.047 196.316V195.659C116.047 195.62 116.016 195.589 115.977 195.589C115.938 195.589 115.907 195.62 115.907 195.659V196.316C115.907 196.355 115.938 196.386 115.977 196.386Z" fill="#0D314C"/>
<path d="M115.623 196.263C115.661 196.263 115.693 196.232 115.693 196.193V195.5C115.693 195.462 115.662 195.43 115.623 195.43C115.584 195.43 115.553 195.462 115.553 195.5V196.193C115.553 196.232 115.584 196.263 115.623 196.263Z" fill="#0D314C"/>
<path d="M126.031 200.648C125.42 201.199 124.622 201.485 123.845 201.756C121.881 202.441 119.886 203.116 117.813 203.291" stroke="#074368" stroke-width="0.0974223" stroke-miterlimit="10" stroke-linecap="round" stroke-linejoin="round"/>
<defs>
<linearGradient id="paint0_linear_35651_6599" x1="95" y1="0" x2="95" y2="242" gradientUnits="userSpaceOnUse">
<stop stop-color="#004DE4"/>
<stop offset="1" stop-color="#012F87"/>
</linearGradient>
</defs>
</svg>
