<svg width="34" height="34" viewBox="0 0 34 34" fill="none" xmlns="http://www.w3.org/2000/svg">
<circle cx="17" cy="17" r="16.5" fill="#0052B3" stroke="white"/>
<path opacity="0.16" d="M10.3335 22.0001C10.3335 21.116 10.6847 20.2682 11.3098 19.6431C11.9349 19.0179 12.7828 18.6667 13.6668 18.6667H20.3335C21.2176 18.6667 22.0654 19.0179 22.6905 19.6431C23.3156 20.2682 23.6668 21.116 23.6668 22.0001C23.6668 22.4421 23.4912 22.866 23.1787 23.1786C22.8661 23.4912 22.4422 23.6667 22.0002 23.6667H12.0002C11.5581 23.6667 11.1342 23.4912 10.8217 23.1786C10.5091 22.866 10.3335 22.4421 10.3335 22.0001Z" fill="white"/>
<path d="M10.3335 22.0001C10.3335 21.116 10.6847 20.2682 11.3098 19.6431C11.9349 19.0179 12.7828 18.6667 13.6668 18.6667H20.3335C21.2176 18.6667 22.0654 19.0179 22.6905 19.6431C23.3156 20.2682 23.6668 21.116 23.6668 22.0001C23.6668 22.4421 23.4912 22.866 23.1787 23.1786C22.8661 23.4912 22.4422 23.6667 22.0002 23.6667H12.0002C11.5581 23.6667 11.1342 23.4912 10.8217 23.1786C10.5091 22.866 10.3335 22.4421 10.3335 22.0001Z" stroke="white" stroke-width="1.5" stroke-linejoin="round"/>
<path d="M17 15.3334C18.3807 15.3334 19.5 14.2141 19.5 12.8334C19.5 11.4527 18.3807 10.3334 17 10.3334C15.6193 10.3334 14.5 11.4527 14.5 12.8334C14.5 14.2141 15.6193 15.3334 17 15.3334Z" stroke="white" stroke-width="1.5"/>
</svg>
